%TF.GenerationSoftware,KiCad,Pcbnew,(5.1.8)-1*%
%TF.CreationDate,2021-06-12T11:00:53-04:00*%
%TF.ProjectId,pixc4-jetson-universal-carrier,70697863-342d-46a6-9574-736f6e2d756e,rev?*%
%TF.SameCoordinates,Original*%
%TF.FileFunction,Copper,L4,Inr*%
%TF.FilePolarity,Positive*%
%FSLAX46Y46*%
G04 Gerber Fmt 4.6, Leading zero omitted, Abs format (unit mm)*
G04 Created by KiCad (PCBNEW (5.1.8)-1) date 2021-06-12 11:00:53*
%MOMM*%
%LPD*%
G01*
G04 APERTURE LIST*
%TA.AperFunction,ComponentPad*%
%ADD10C,4.000000*%
%TD*%
%TA.AperFunction,ComponentPad*%
%ADD11C,1.600000*%
%TD*%
%TA.AperFunction,ComponentPad*%
%ADD12C,3.500000*%
%TD*%
%TA.AperFunction,ComponentPad*%
%ADD13R,3.500000X3.500000*%
%TD*%
%TA.AperFunction,ComponentPad*%
%ADD14C,1.400000*%
%TD*%
%TA.AperFunction,ComponentPad*%
%ADD15C,5.400000*%
%TD*%
%TA.AperFunction,ComponentPad*%
%ADD16C,0.800000*%
%TD*%
%TA.AperFunction,ViaPad*%
%ADD17C,0.600000*%
%TD*%
%TA.AperFunction,Conductor*%
%ADD18C,0.254000*%
%TD*%
%TA.AperFunction,Conductor*%
%ADD19C,0.152400*%
%TD*%
G04 APERTURE END LIST*
D10*
%TO.N,*%
%TO.C,U5*%
X132105400Y-134734300D03*
X67105400Y-134734300D03*
X132105400Y-80734300D03*
X67105400Y-80734300D03*
%TD*%
D11*
%TO.N,+5V*%
%TO.C,J5*%
X120250000Y-88625000D03*
X95750000Y-88625000D03*
%TO.N,GND*%
X120250000Y-83875000D03*
X95750000Y-83875000D03*
%TD*%
%TO.N,+5V*%
%TO.C,J6*%
X120250000Y-131625000D03*
X95750000Y-131625000D03*
%TO.N,GND*%
X120250000Y-126875000D03*
X95750000Y-126875000D03*
%TD*%
D12*
%TO.N,Net-(D1-Pad1)*%
%TO.C,J27*%
X65194180Y-93920320D03*
D13*
%TO.N,GND*%
X65194180Y-88920320D03*
D14*
%TO.N,*%
X55194180Y-96920320D03*
X55194180Y-85920320D03*
%TD*%
D15*
%TO.N,GND*%
%TO.C,J4*%
X137500000Y-133750000D03*
D16*
X139525000Y-133750000D03*
X138931891Y-135181891D03*
X137500000Y-135775000D03*
X136068109Y-135181891D03*
X135475000Y-133750000D03*
X136068109Y-132318109D03*
X137500000Y-131725000D03*
X138931891Y-132318109D03*
%TD*%
D15*
%TO.N,GND*%
%TO.C,J3*%
X137500000Y-81750000D03*
D16*
X139525000Y-81750000D03*
X138931891Y-83181891D03*
X137500000Y-83775000D03*
X136068109Y-83181891D03*
X135475000Y-81750000D03*
X136068109Y-80318109D03*
X137500000Y-79725000D03*
X138931891Y-80318109D03*
%TD*%
D15*
%TO.N,GND*%
%TO.C,J2*%
X61500000Y-133750000D03*
D16*
X63525000Y-133750000D03*
X62931891Y-135181891D03*
X61500000Y-135775000D03*
X60068109Y-135181891D03*
X59475000Y-133750000D03*
X60068109Y-132318109D03*
X61500000Y-131725000D03*
X62931891Y-132318109D03*
%TD*%
D15*
%TO.N,GND*%
%TO.C,J1*%
X61500000Y-81750000D03*
D16*
X63525000Y-81750000D03*
X62931891Y-83181891D03*
X61500000Y-83775000D03*
X60068109Y-83181891D03*
X59475000Y-81750000D03*
X60068109Y-80318109D03*
X61500000Y-79725000D03*
X62931891Y-80318109D03*
%TD*%
D17*
%TO.N,GND*%
X145694400Y-89662000D03*
X76085700Y-103860600D03*
X74917300Y-103886000D03*
X75463400Y-103035100D03*
X76009500Y-102108000D03*
X74968100Y-102108000D03*
X125082300Y-89471500D03*
X95872300Y-100393500D03*
X96913700Y-100393500D03*
X95821500Y-102171500D03*
X96367600Y-101320600D03*
X96989900Y-102146100D03*
X127000000Y-91706700D03*
X104228900Y-81216500D03*
X68478400Y-84251800D03*
X74777600Y-86728300D03*
X68491100Y-88646000D03*
X71932800Y-85877400D03*
X61269880Y-102707440D03*
X63068200Y-98907600D03*
X64833500Y-108394500D03*
X63911480Y-116591080D03*
X64211200Y-123101100D03*
X85331300Y-101638100D03*
X84467700Y-96405700D03*
X73596500Y-96964500D03*
X95135700Y-96304100D03*
X108140500Y-109562900D03*
X105752900Y-116827300D03*
X115887500Y-116471700D03*
X119265700Y-108242100D03*
X133604000Y-112712500D03*
X133096000Y-123609100D03*
X143357600Y-81673700D03*
X125920500Y-80098900D03*
X111175800Y-124358400D03*
X111988600Y-124409200D03*
X144322800Y-92281658D03*
X144132300Y-96139000D03*
X100470990Y-127500292D03*
X104250005Y-127336658D03*
X105501442Y-131211610D03*
X107858560Y-87055960D03*
X138506200Y-95930720D03*
X137105181Y-99939699D03*
X131394200Y-102895400D03*
X128727200Y-100545900D03*
X125488700Y-101498400D03*
X129616200Y-107340400D03*
X126504700Y-105625900D03*
X109994700Y-116166900D03*
X135077200Y-119532400D03*
X129489200Y-123596400D03*
X127838200Y-135089900D03*
X127012700Y-127469900D03*
X83324700Y-117182900D03*
X86499700Y-122834400D03*
X79324200Y-122707400D03*
X80848200Y-127215900D03*
X89039700Y-127215900D03*
X71259700Y-135343900D03*
X65671700Y-130644900D03*
X63068200Y-105371900D03*
X64147700Y-84797900D03*
X69291200Y-96926400D03*
X87896700Y-108292900D03*
X111772700Y-106514900D03*
X108280200Y-95783400D03*
X127965200Y-119405400D03*
X143522700Y-134454900D03*
X55003700Y-80924400D03*
X122694700Y-123532900D03*
X120599200Y-115531900D03*
X106311700Y-107149900D03*
X109042200Y-104609900D03*
X133870700Y-100164900D03*
X115201700Y-91528900D03*
%TO.N,+BATT*%
X104216200Y-93891100D03*
X108394500Y-87604600D03*
X86372700Y-103911400D03*
X75336400Y-131114800D03*
%TO.N,+VDD_SERVO*%
X138447085Y-105261985D03*
X116398040Y-128188720D03*
%TO.N,+5V*%
X75692000Y-85521800D03*
X85051900Y-130721100D03*
X75184000Y-124091700D03*
X76098400Y-124079000D03*
X77012800Y-124066300D03*
X76987400Y-123202700D03*
X75158600Y-123228100D03*
X76073000Y-123215400D03*
X68453000Y-104521000D03*
X53073300Y-132600700D03*
%TO.N,3V3_SYS*%
X80759300Y-87058500D03*
X117500399Y-79844901D03*
%TO.N,USB2-*%
X113739846Y-85542562D03*
X137827849Y-98077721D03*
%TO.N,USB2+*%
X113247673Y-86721805D03*
X137662326Y-99252751D03*
%TO.N,PORT_VBUS_2*%
X112217200Y-81483200D03*
X141798240Y-96894375D03*
%TO.N,USB3-*%
X111391700Y-85801200D03*
X137627360Y-107741720D03*
%TO.N,USB3+*%
X110964548Y-86451214D03*
X137302240Y-108452920D03*
%TO.N,PORT_VBUS_3*%
X110629700Y-81407000D03*
X141798240Y-106029690D03*
%TO.N,USB4-*%
X109346858Y-85491485D03*
X139856278Y-116600960D03*
%TO.N,USB4+*%
X139856278Y-117408670D03*
X108828756Y-86085854D03*
%TO.N,PORT_VBUS_4*%
X140182600Y-115125500D03*
X108846325Y-81465125D03*
%TO.N,USB5-*%
X107416600Y-85623400D03*
X139471400Y-125948160D03*
X106717290Y-94201401D03*
%TO.N,USB5+*%
X106667299Y-85832063D03*
X139471400Y-126832640D03*
X105869460Y-94030800D03*
%TO.N,PORT_VBUS_5*%
X139598400Y-124256800D03*
X109181900Y-80556100D03*
X122034300Y-80683100D03*
X122022166Y-86105898D03*
%TO.N,ETH_RADIO_TX_N*%
X102335801Y-81514220D03*
X122455940Y-103014780D03*
%TO.N,ETH_RADIO_TX_P*%
X101762681Y-81001322D03*
X121208800Y-103479600D03*
%TO.N,ETH_RADIO_RX_N*%
X100850700Y-80860900D03*
X112731920Y-104299120D03*
%TO.N,ETH_RADIO_RX_P*%
X100109878Y-80729344D03*
X113670484Y-104274216D03*
%TO.N,ETH_SPARE_RX_P*%
X99767855Y-81528576D03*
X127464830Y-87396310D03*
%TO.N,ETH_SPARE_RX_N*%
X99160706Y-81084172D03*
X127429765Y-88671400D03*
%TO.N,ETH_SPARE_TX_P*%
X98494149Y-81433207D03*
X127464810Y-95016330D03*
%TO.N,ETH_SPARE_TX_N*%
X97775407Y-81655767D03*
X127464813Y-96286327D03*
%TO.N,XAVIER_CONSOLE_TX_OUT*%
X97612200Y-88315800D03*
X58547000Y-104432100D03*
%TO.N,XAVIER_CONSOLE_RX_IN*%
X58508900Y-105625900D03*
X97574100Y-89458800D03*
%TO.N,FMU_I2C_1_SDA*%
X103746300Y-124129800D03*
X59324242Y-122174000D03*
%TO.N,FMU_I2C_1_SCL*%
X102990943Y-123611586D03*
X58518921Y-120522869D03*
%TO.N,GPS1_RX*%
X102359445Y-123202521D03*
X58860348Y-119852383D03*
%TO.N,GPS1_TX*%
X58877200Y-118795800D03*
X102171310Y-122474010D03*
%TO.N,+VDD_5V_PERIPH*%
X144246600Y-103352288D03*
X144180128Y-99641634D03*
X98272600Y-127520700D03*
X101750008Y-127336657D03*
X55511700Y-128701800D03*
X97637600Y-134967668D03*
X58740040Y-117495320D03*
X112127789Y-134558761D03*
X110073440Y-135097520D03*
X106299000Y-135082280D03*
X107604551Y-135117831D03*
X140221660Y-129980380D03*
X60126880Y-128671320D03*
X59496960Y-115935760D03*
%TO.N,BATT_VOLTAGE_SENS_PROT*%
X115627082Y-130095237D03*
X58269562Y-101210800D03*
%TO.N,BATT_CURRENT_SENS_PROT*%
X115087400Y-130619500D03*
X58242200Y-102382320D03*
%TO.N,FMU-CH1-PROT*%
X143484600Y-92240100D03*
X102526010Y-130871221D03*
%TO.N,IO-CH8-PROT*%
X144373600Y-90627200D03*
X102039609Y-130297168D03*
%TO.N,IO-CH7-PROT*%
X144373600Y-87668100D03*
X101388155Y-130673640D03*
%TO.N,IO-CH6-PROT*%
X138275161Y-102645571D03*
X100716370Y-131012503D03*
%TO.N,IO-CH5-PROT*%
X100519283Y-129909783D03*
X137617200Y-100700840D03*
%TO.N,IO-CH4-PROT*%
X138363195Y-96967805D03*
X99776570Y-130030207D03*
%TO.N,IO-CH3-PROT*%
X141401842Y-93675227D03*
X99544316Y-129257257D03*
%TO.N,IO-CH2-PROT*%
X98796130Y-129177622D03*
X137748135Y-90544864D03*
%TO.N,IO-CH1-PROT*%
X98209100Y-128422400D03*
X139823041Y-86846559D03*
%TO.N,ETH_RADIO_TX_POSTMAG_N*%
X117936501Y-85499521D03*
X122455936Y-94569284D03*
%TO.N,ETH_RADIO_TX_POSTMAG_P*%
X116285922Y-85888732D03*
X121158505Y-94596715D03*
%TO.N,ETH_RADIO_RX_POSTMAG_N*%
X114835940Y-94569280D03*
X114854010Y-87768988D03*
%TO.N,ETH_RADIO_RX_POSTMAG_P*%
X113565940Y-94569280D03*
X113896645Y-87334855D03*
%TO.N,ETH_SPARE_TX_POSTMAG_N*%
X137493245Y-96097855D03*
%TO.N,ETH_SPARE_TX_POSTMAG_P*%
X136857296Y-95461907D03*
%TO.N,ETH_SPARE_RX_POSTMAG_N*%
X137680700Y-88480900D03*
%TO.N,ETH_SPARE_RX_POSTMAG_P*%
X137655300Y-87617300D03*
%TO.N,Net-(C20-Pad1)*%
X98717100Y-103936800D03*
X93636840Y-102044400D03*
%TO.N,Net-(D4-Pad1)*%
X53924200Y-135483600D03*
%TO.N,Net-(C21-Pad1)*%
X77978000Y-105537000D03*
X72752960Y-103794460D03*
%TO.N,+5V_FMU*%
X109499400Y-124129800D03*
X89090500Y-102730300D03*
X91236800Y-117919500D03*
X57124600Y-132181600D03*
X97726500Y-115112800D03*
X114554000Y-120197546D03*
X98557080Y-115097560D03*
X89103200Y-129692400D03*
%TO.N,Net-(D5-Pad1)*%
X56553100Y-135445500D03*
%TO.N,IRID_ON_OFF_3.3*%
X77050900Y-85255100D03*
X112217200Y-91605100D03*
%TO.N,IRID_TX_IN_3.3*%
X78155800Y-85305900D03*
X111772710Y-90930419D03*
%TO.N,IRID_RING_3.3*%
X79425800Y-82245200D03*
X110944111Y-91478100D03*
%TO.N,IRID_NA_3.3*%
X80657700Y-82270600D03*
X110326413Y-91907702D03*
%TO.N,IRID_RX_OUT_3.3*%
X109590480Y-92064262D03*
X84442300Y-81876900D03*
%TO.N,CAM1_D2_N*%
X109409465Y-90959095D03*
X85420200Y-86004400D03*
%TO.N,CAM1_D2_P*%
X108877100Y-91490800D03*
X85151489Y-86707183D03*
%TO.N,CAM1_D3_N*%
X84010500Y-85445600D03*
X107899200Y-91643200D03*
%TO.N,CAM1_D3_P*%
X107087969Y-92349610D03*
X83096100Y-85344000D03*
%TO.N,CAM1_D0_N*%
X89877900Y-85178900D03*
X105933786Y-85573315D03*
%TO.N,CAM1_D0_P*%
X105498900Y-86194900D03*
X89001600Y-85140800D03*
%TO.N,CAM1_C_N*%
X104731809Y-86399379D03*
X86575900Y-84950300D03*
%TO.N,CAM1_C_P*%
X104216200Y-86956900D03*
X85902932Y-85286784D03*
%TO.N,CAM1_D1_N*%
X103190900Y-87314458D03*
X88074965Y-85065452D03*
%TO.N,CAM1_D1_P*%
X102730300Y-87909400D03*
X87515700Y-85568772D03*
%TO.N,CAM_GPIO*%
X99961700Y-91211400D03*
X82448400Y-85966300D03*
%TO.N,CAM_SCL0*%
X100038766Y-87667234D03*
X81051400Y-85661500D03*
%TO.N,CAM_SDA0*%
X99289523Y-87736219D03*
X80086200Y-85496400D03*
%TO.N,RC_INPUT*%
X107873800Y-123510040D03*
X58491120Y-109407960D03*
%TO.N,+VDD_5V_RADIO*%
X107177840Y-122682000D03*
X58301380Y-110599980D03*
%TO.N,BUZZER_OUT*%
X106407958Y-124035555D03*
X58643481Y-127110191D03*
%TO.N,SAFETY_VDD*%
X105882440Y-123240800D03*
X58390511Y-126052980D03*
%TO.N,~SAFETY_SWITCH_LED_OUT*%
X105151715Y-123620506D03*
X61165740Y-124929900D03*
%TO.N,SAFETY_SWITCH_IN*%
X104632470Y-124203724D03*
X58372688Y-123714160D03*
%TO.N,SPI5_CS2_EXTERNAL1*%
X100882020Y-120606906D03*
X138816080Y-123550680D03*
%TO.N,SPI5_CS1_EXTERNAL1*%
X100355398Y-121729500D03*
X138821160Y-124419360D03*
%TO.N,SPI5_MOSI_EXTERNAL1*%
X99834700Y-122720100D03*
X137271844Y-125252396D03*
%TO.N,SPI5_MISO_EXTERNAL1*%
X99468339Y-123867183D03*
X137825480Y-127452120D03*
%TO.N,SPI5_SCK_EXTERNAL1*%
X137998200Y-128587500D03*
X98765049Y-124134590D03*
%TO.N,TELEM1_TX*%
X55511700Y-127431800D03*
X114385281Y-135702275D03*
%TO.N,TELEM1_RX*%
X55486300Y-126212600D03*
X113671026Y-135465711D03*
%TO.N,TELEM1_CTS*%
X55422800Y-124955300D03*
X112932693Y-135320835D03*
%TO.N,TELEM1_RTS*%
X55384700Y-123710700D03*
X112148676Y-135357284D03*
%TO.N,CAN_L_1-*%
X144208500Y-101193600D03*
X111381030Y-134466700D03*
%TO.N,CAN_H_1+*%
X144208500Y-100393500D03*
X110724418Y-134099300D03*
%TO.N,CAN_L_2-*%
X58643520Y-113477040D03*
X72303104Y-131690375D03*
X109353649Y-134008460D03*
%TO.N,CAN_H_2+*%
X58577480Y-114614960D03*
X109047280Y-134777480D03*
X71552148Y-131880385D03*
%TO.N,FMU_I2C_2_SDA*%
X144297400Y-106006900D03*
X107610456Y-134289770D03*
%TO.N,FMU_I2C_2_SCL*%
X144200676Y-105260742D03*
X106858090Y-134298105D03*
%TO.N,FMU-CH6-PROT*%
X138775440Y-113284000D03*
X104734650Y-133684532D03*
%TO.N,FMU-CH5-PROT*%
X138744960Y-114518440D03*
X104140290Y-134213688D03*
%TO.N,FMU-CH4-PROT*%
X103548204Y-134683445D03*
X138315700Y-115214400D03*
%TO.N,FMU-CH3-PROT*%
X102808149Y-134547695D03*
X137754360Y-118150640D03*
%TO.N,FMU-CH2-PROT*%
X144043400Y-97015300D03*
X103270711Y-130978665D03*
%TD*%
D18*
%TO.N,PORT_VBUS_2*%
X140822432Y-86988436D02*
X138908723Y-85074727D01*
X141798240Y-96894375D02*
X141798240Y-95027087D01*
X138908723Y-85074727D02*
X136420420Y-85074727D01*
X136420420Y-85074727D02*
X135373940Y-84028247D01*
X135373940Y-84028247D02*
X122946127Y-84028247D01*
X122946127Y-84028247D02*
X120401080Y-81483200D01*
X141798240Y-95027087D02*
X140822432Y-94051279D01*
X120401080Y-81483200D02*
X112641464Y-81483200D01*
X140822432Y-94051279D02*
X140822432Y-86988436D01*
X112641464Y-81483200D02*
X112217200Y-81483200D01*
%TO.N,PORT_VBUS_3*%
X119461280Y-85120480D02*
X118854501Y-84513700D01*
X122518040Y-84434658D02*
X121832218Y-85120480D01*
X135205600Y-84434658D02*
X122518040Y-84434658D01*
X121832218Y-85120480D02*
X119461280Y-85120480D01*
X113736400Y-84513700D02*
X110629700Y-81407000D01*
X140416021Y-88371005D02*
X137526154Y-85481138D01*
X137526154Y-85481138D02*
X136252080Y-85481138D01*
X140416021Y-104647471D02*
X140416021Y-88371005D01*
X136252080Y-85481138D02*
X135205600Y-84434658D01*
X141798240Y-106029690D02*
X140416021Y-104647471D01*
X118854501Y-84513700D02*
X113736400Y-84513700D01*
%TO.N,PORT_VBUS_4*%
X122000558Y-85526891D02*
X119292939Y-85526890D01*
X112301311Y-84920111D02*
X108846325Y-81465125D01*
X118686161Y-84920111D02*
X112301311Y-84920111D01*
X119292939Y-85526890D02*
X118686161Y-84920111D01*
X122686380Y-84841069D02*
X122000558Y-85526891D01*
X135037260Y-84841069D02*
X122686380Y-84841069D01*
X136083740Y-85887549D02*
X135037260Y-84841069D01*
X137357814Y-85887549D02*
X136083740Y-85887549D01*
X140009610Y-88539345D02*
X137357814Y-85887549D01*
X140009610Y-114952510D02*
X140009610Y-88539345D01*
X140182600Y-115125500D02*
X140009610Y-114952510D01*
%TO.N,PORT_VBUS_5*%
X109181900Y-80556100D02*
X121907300Y-80556100D01*
X121907300Y-80556100D02*
X122034300Y-80683100D01*
X139603199Y-115996159D02*
X139251477Y-116347881D01*
X139251477Y-116347881D02*
X139251477Y-123143803D01*
X122634492Y-86293960D02*
X137189474Y-86293960D01*
X122446430Y-86105898D02*
X122634492Y-86293960D01*
X139251477Y-123143803D02*
X139598400Y-123490726D01*
X137189474Y-86293960D02*
X139603199Y-88707685D01*
X139598400Y-123490726D02*
X139598400Y-124256800D01*
X139603199Y-88707685D02*
X139603199Y-115996159D01*
X122022166Y-86105898D02*
X122446430Y-86105898D01*
%TO.N,+VDD_5V_PERIPH*%
X98272600Y-127520700D02*
X98872409Y-126920891D01*
X101334242Y-126920891D02*
X101750008Y-127336657D01*
X98872409Y-126920891D02*
X101334242Y-126920891D01*
X97337601Y-128455699D02*
X97337601Y-134667669D01*
X98272600Y-127520700D02*
X97337601Y-128455699D01*
X97337601Y-134667669D02*
X97637600Y-134967668D01*
X58740040Y-117495320D02*
X57185560Y-119049800D01*
X97337601Y-128455699D02*
X97121980Y-128671320D01*
X57185560Y-119049800D02*
X57185560Y-126484464D01*
X57185560Y-126484464D02*
X59372416Y-128671320D01*
X97121980Y-128671320D02*
X60126880Y-128671320D01*
X59372416Y-128671320D02*
X60126880Y-128671320D01*
X59496960Y-116738400D02*
X59496960Y-115935760D01*
X58740040Y-117495320D02*
X59496960Y-116738400D01*
D19*
%TO.N,+5V_FMU*%
X57124600Y-132181600D02*
X59613800Y-129692400D01*
X59613800Y-129692400D02*
X89103200Y-129692400D01*
%TO.N,IRID_ON_OFF_3.3*%
X107620356Y-93030620D02*
X111215944Y-93030620D01*
X111215944Y-93030620D02*
X112217200Y-92029364D01*
X77050900Y-85255100D02*
X84978822Y-93183022D01*
X107467954Y-93183022D02*
X107620356Y-93030620D01*
X84978822Y-93183022D02*
X107467954Y-93183022D01*
X112217200Y-92029364D02*
X112217200Y-91605100D01*
%TO.N,IRID_TX_IN_3.3*%
X111472711Y-91230418D02*
X111772710Y-90930419D01*
X111472711Y-92058223D02*
X111472711Y-91230418D01*
X107494100Y-92725809D02*
X110805125Y-92725809D01*
X110805125Y-92725809D02*
X111472711Y-92058223D01*
X85329331Y-92878211D02*
X107341698Y-92878211D01*
X107341698Y-92878211D02*
X107494100Y-92725809D01*
X78155800Y-85704680D02*
X85329331Y-92878211D01*
X78155800Y-85305900D02*
X78155800Y-85704680D01*
%TO.N,IRID_RING_3.3*%
X110944111Y-90014511D02*
X111945701Y-89012921D01*
X111945701Y-85535279D02*
X106306355Y-79895933D01*
X110944111Y-91478100D02*
X110944111Y-90014511D01*
X111945701Y-89012921D02*
X111945701Y-85535279D01*
X81775067Y-79895933D02*
X79425800Y-82245200D01*
X106306355Y-79895933D02*
X81775067Y-79895933D01*
%TO.N,IRID_NA_3.3*%
X110326413Y-85651118D02*
X110326413Y-91907702D01*
X104876038Y-80200743D02*
X110326413Y-85651118D01*
X82016357Y-80200743D02*
X104876038Y-80200743D01*
X80657700Y-81559400D02*
X82016357Y-80200743D01*
X80657700Y-82270600D02*
X80657700Y-81559400D01*
%TO.N,IRID_RX_OUT_3.3*%
X84805799Y-82240399D02*
X84442300Y-81876900D01*
X104853521Y-82240399D02*
X84805799Y-82240399D01*
X107970601Y-85357479D02*
X104853521Y-82240399D01*
X109938066Y-88373466D02*
X107970601Y-86406001D01*
X107970601Y-86406001D02*
X107970601Y-85357479D01*
X109938066Y-91212824D02*
X109938066Y-88373466D01*
X109590480Y-92064262D02*
X109590480Y-91560410D01*
X109590480Y-91560410D02*
X109938066Y-91212824D01*
%TO.N,CAM1_C_N*%
X99446830Y-86164048D02*
X99481585Y-86142210D01*
X99167069Y-85540522D02*
X99184000Y-85690787D01*
X97746004Y-86039689D02*
X97750600Y-85998900D01*
X97732447Y-86078431D02*
X97746004Y-86039689D01*
X97710609Y-86113186D02*
X97732447Y-86078431D01*
X97681585Y-86142210D02*
X97710609Y-86113186D01*
X97646830Y-86164048D02*
X97681585Y-86142210D01*
X97608088Y-86177605D02*
X97646830Y-86164048D01*
X97567300Y-86182200D02*
X97608088Y-86177605D01*
X97526511Y-86177605D02*
X97567300Y-86182200D01*
X97487769Y-86164048D02*
X97526511Y-86177605D01*
X97453014Y-86142210D02*
X97487769Y-86164048D01*
X97423990Y-86113186D02*
X97453014Y-86142210D01*
X97402152Y-86078431D02*
X97423990Y-86113186D01*
X97388595Y-86039689D02*
X97402152Y-86078431D01*
X97384000Y-85998900D02*
X97388595Y-86039689D01*
X97384000Y-85690787D02*
X97384000Y-85998900D01*
X97367069Y-85540522D02*
X97384000Y-85690787D01*
X97317125Y-85397791D02*
X97367069Y-85540522D01*
X97236673Y-85269753D02*
X97317125Y-85397791D01*
X97129747Y-85162827D02*
X97236673Y-85269753D01*
X97001709Y-85082375D02*
X97129747Y-85162827D01*
X96858978Y-85032431D02*
X97001709Y-85082375D01*
X96708713Y-85015500D02*
X96858978Y-85032431D01*
X96625886Y-85015500D02*
X96708713Y-85015500D01*
X96475621Y-85032431D02*
X96625886Y-85015500D01*
X96332890Y-85082375D02*
X96475621Y-85032431D01*
X96204852Y-85162827D02*
X96332890Y-85082375D01*
X96097926Y-85269753D02*
X96204852Y-85162827D01*
X96017474Y-85397791D02*
X96097926Y-85269753D01*
X95967530Y-85540522D02*
X96017474Y-85397791D01*
X95950600Y-85690787D02*
X95967530Y-85540522D01*
X95950600Y-85998900D02*
X95950600Y-85690787D01*
X95946004Y-86039689D02*
X95950600Y-85998900D01*
X95932447Y-86078431D02*
X95946004Y-86039689D01*
X95910609Y-86113186D02*
X95932447Y-86078431D01*
X95881585Y-86142210D02*
X95910609Y-86113186D01*
X95846830Y-86164048D02*
X95881585Y-86142210D01*
X95808088Y-86177605D02*
X95846830Y-86164048D01*
X95767300Y-86182200D02*
X95808088Y-86177605D01*
X95726511Y-86177605D02*
X95767300Y-86182200D01*
X95687769Y-86164048D02*
X95726511Y-86177605D01*
X95653014Y-86142210D02*
X95687769Y-86164048D01*
X95623990Y-86113186D02*
X95653014Y-86142210D01*
X95602152Y-86078431D02*
X95623990Y-86113186D01*
X95588595Y-86039689D02*
X95602152Y-86078431D01*
X95584000Y-85998900D02*
X95588595Y-86039689D01*
X95584000Y-85690787D02*
X95584000Y-85998900D01*
X95567069Y-85540522D02*
X95584000Y-85690787D01*
X95517125Y-85397791D02*
X95567069Y-85540522D01*
X95436673Y-85269753D02*
X95517125Y-85397791D01*
X95329747Y-85162827D02*
X95436673Y-85269753D01*
X95201709Y-85082375D02*
X95329747Y-85162827D01*
X95058978Y-85032431D02*
X95201709Y-85082375D01*
X94908713Y-85015500D02*
X95058978Y-85032431D01*
X94825886Y-85015500D02*
X94908713Y-85015500D01*
X94675621Y-85032431D02*
X94825886Y-85015500D01*
X94532890Y-85082375D02*
X94675621Y-85032431D01*
X94404852Y-85162827D02*
X94532890Y-85082375D01*
X94297926Y-85269753D02*
X94404852Y-85162827D01*
X94217474Y-85397791D02*
X94297926Y-85269753D01*
X94167530Y-85540522D02*
X94217474Y-85397791D01*
X94150600Y-85690787D02*
X94167530Y-85540522D01*
X94150600Y-85998900D02*
X94150600Y-85690787D01*
X94146004Y-86039689D02*
X94150600Y-85998900D01*
X94132447Y-86078431D02*
X94146004Y-86039689D01*
X94110609Y-86113186D02*
X94132447Y-86078431D01*
X94081585Y-86142210D02*
X94110609Y-86113186D01*
X94046830Y-86164048D02*
X94081585Y-86142210D01*
X94008088Y-86177605D02*
X94046830Y-86164048D01*
X93967300Y-86182200D02*
X94008088Y-86177605D01*
X87168972Y-86182200D02*
X93967300Y-86182200D01*
X86575900Y-85589128D02*
X87168972Y-86182200D01*
X86575900Y-84950300D02*
X86575900Y-85589128D01*
X99697926Y-85269753D02*
X99804852Y-85162827D01*
X99546004Y-86039689D02*
X99550600Y-85998900D01*
X98658978Y-85032431D02*
X98801709Y-85082375D01*
X99253014Y-86142210D02*
X99287769Y-86164048D01*
X99532447Y-86078431D02*
X99546004Y-86039689D01*
X99510609Y-86113186D02*
X99532447Y-86078431D01*
X99408088Y-86177605D02*
X99446830Y-86164048D01*
X99367300Y-86182200D02*
X99408088Y-86177605D01*
X97817474Y-85397791D02*
X97897926Y-85269753D01*
X99932890Y-85082375D02*
X100075621Y-85032431D01*
X99188595Y-86039689D02*
X99202152Y-86078431D01*
X97897926Y-85269753D02*
X98004852Y-85162827D01*
X98004852Y-85162827D02*
X98132890Y-85082375D01*
X98132890Y-85082375D02*
X98275621Y-85032431D01*
X99184000Y-85998900D02*
X99188595Y-86039689D01*
X98425886Y-85015500D02*
X98508713Y-85015500D01*
X97750600Y-85690787D02*
X97767530Y-85540522D01*
X99223990Y-86113186D02*
X99253014Y-86142210D01*
X99567530Y-85540522D02*
X99617474Y-85397791D01*
X98801709Y-85082375D02*
X98929747Y-85162827D01*
X99481585Y-86142210D02*
X99510609Y-86113186D01*
X99287769Y-86164048D02*
X99326511Y-86177605D01*
X98929747Y-85162827D02*
X99036673Y-85269753D01*
X99550600Y-85998900D02*
X99550600Y-85690787D01*
X98508713Y-85015500D02*
X98658978Y-85032431D01*
X99804852Y-85162827D02*
X99932890Y-85082375D01*
X99550600Y-85690787D02*
X99567530Y-85540522D01*
X99184000Y-85690787D02*
X99184000Y-85998900D01*
X99326511Y-86177605D02*
X99367300Y-86182200D01*
X97767530Y-85540522D02*
X97817474Y-85397791D01*
X98275621Y-85032431D02*
X98425886Y-85015500D01*
X99117125Y-85397791D02*
X99167069Y-85540522D01*
X99617474Y-85397791D02*
X99697926Y-85269753D01*
X100075621Y-85032431D02*
X100225886Y-85015500D01*
X97750600Y-85998900D02*
X97750600Y-85690787D01*
X99036673Y-85269753D02*
X99117125Y-85397791D01*
X99202152Y-86078431D02*
X99223990Y-86113186D01*
X100225886Y-85015500D02*
X100308713Y-85015500D01*
X100308713Y-85015500D02*
X100458978Y-85032431D01*
X100458978Y-85032431D02*
X100601709Y-85082375D01*
X100601709Y-85082375D02*
X100729747Y-85162827D01*
X100729747Y-85162827D02*
X100836673Y-85269753D01*
X100836673Y-85269753D02*
X100917125Y-85397791D01*
X100917125Y-85397791D02*
X100967069Y-85540522D01*
X100967069Y-85540522D02*
X100984000Y-85690787D01*
X100984000Y-85690787D02*
X100984000Y-87090600D01*
X100984000Y-87090600D02*
X100986715Y-87114699D01*
X100986715Y-87114699D02*
X100994725Y-87137589D01*
X100994725Y-87137589D02*
X101007627Y-87158123D01*
X101007627Y-87158123D02*
X101024776Y-87175272D01*
X101024776Y-87175272D02*
X101045310Y-87188174D01*
X101045310Y-87188174D02*
X101068200Y-87196184D01*
X101068200Y-87196184D02*
X101092300Y-87198900D01*
X101092300Y-87198900D02*
X101242300Y-87198900D01*
X101242300Y-87198900D02*
X101266399Y-87196184D01*
X101266399Y-87196184D02*
X101289289Y-87188174D01*
X101289289Y-87188174D02*
X101309823Y-87175272D01*
X101309823Y-87175272D02*
X101326972Y-87158123D01*
X101326972Y-87158123D02*
X101339874Y-87137589D01*
X101339874Y-87137589D02*
X101347884Y-87114699D01*
X101347884Y-87114699D02*
X101350600Y-87090600D01*
X101350600Y-87090600D02*
X101350600Y-86786820D01*
X101350600Y-86786820D02*
X101365759Y-86652279D01*
X101365759Y-86652279D02*
X101410476Y-86524485D01*
X101410476Y-86524485D02*
X101482509Y-86409845D01*
X101482509Y-86409845D02*
X101578245Y-86314109D01*
X101578245Y-86314109D02*
X101692885Y-86242076D01*
X101692885Y-86242076D02*
X101820679Y-86197359D01*
X101820679Y-86197359D02*
X101955220Y-86182200D01*
X101955220Y-86182200D02*
X104376192Y-86182200D01*
X104376192Y-86182200D02*
X104593371Y-86399379D01*
X104593371Y-86399379D02*
X104731809Y-86399379D01*
%TO.N,CAM1_C_P*%
X100450600Y-87127679D02*
X100465759Y-87262220D01*
X100450600Y-85732200D02*
X100450600Y-87127679D01*
X100446004Y-85691412D02*
X100450600Y-85732200D01*
X100432447Y-85652670D02*
X100446004Y-85691412D01*
X100410609Y-85617915D02*
X100432447Y-85652670D01*
X100381585Y-85588891D02*
X100410609Y-85617915D01*
X100346830Y-85567053D02*
X100381585Y-85588891D01*
X100308088Y-85553496D02*
X100346830Y-85567053D01*
X100267300Y-85548900D02*
X100308088Y-85553496D01*
X100226511Y-85553496D02*
X100267300Y-85548900D01*
X100187769Y-85567053D02*
X100226511Y-85553496D01*
X100153014Y-85588891D02*
X100187769Y-85567053D01*
X100123990Y-85617915D02*
X100153014Y-85588891D01*
X100102152Y-85652670D02*
X100123990Y-85617915D01*
X100088595Y-85691412D02*
X100102152Y-85652670D01*
X100084000Y-85732200D02*
X100088595Y-85691412D01*
X100084000Y-86040314D02*
X100084000Y-85732200D01*
X100067069Y-86190579D02*
X100084000Y-86040314D01*
X100017125Y-86333310D02*
X100067069Y-86190579D01*
X99936673Y-86461348D02*
X100017125Y-86333310D01*
X99829747Y-86568274D02*
X99936673Y-86461348D01*
X99701709Y-86648726D02*
X99829747Y-86568274D01*
X99558978Y-86698670D02*
X99701709Y-86648726D01*
X99408713Y-86715600D02*
X99558978Y-86698670D01*
X99325886Y-86715600D02*
X99408713Y-86715600D01*
X99175621Y-86698670D02*
X99325886Y-86715600D01*
X98904852Y-86568274D02*
X99032890Y-86648726D01*
X98797926Y-86461348D02*
X98904852Y-86568274D01*
X98717474Y-86333310D02*
X98797926Y-86461348D01*
X98667530Y-86190579D02*
X98717474Y-86333310D01*
X98650600Y-86040314D02*
X98667530Y-86190579D01*
X98650600Y-85732200D02*
X98650600Y-86040314D01*
X98646004Y-85691412D02*
X98650600Y-85732200D01*
X98632447Y-85652670D02*
X98646004Y-85691412D01*
X98610609Y-85617915D02*
X98632447Y-85652670D01*
X98581585Y-85588891D02*
X98610609Y-85617915D01*
X98546830Y-85567053D02*
X98581585Y-85588891D01*
X98508088Y-85553496D02*
X98546830Y-85567053D01*
X98467300Y-85548900D02*
X98508088Y-85553496D01*
X98426511Y-85553496D02*
X98467300Y-85548900D01*
X98387769Y-85567053D02*
X98426511Y-85553496D01*
X98353014Y-85588891D02*
X98387769Y-85567053D01*
X98323990Y-85617915D02*
X98353014Y-85588891D01*
X98302152Y-85652670D02*
X98323990Y-85617915D01*
X98288595Y-85691412D02*
X98302152Y-85652670D01*
X98284000Y-85732200D02*
X98288595Y-85691412D01*
X98284000Y-86040314D02*
X98284000Y-85732200D01*
X98267069Y-86190579D02*
X98284000Y-86040314D01*
X98217125Y-86333310D02*
X98267069Y-86190579D01*
X98136673Y-86461348D02*
X98217125Y-86333310D01*
X98029747Y-86568274D02*
X98136673Y-86461348D01*
X97901709Y-86648726D02*
X98029747Y-86568274D01*
X97758978Y-86698670D02*
X97901709Y-86648726D01*
X97608713Y-86715600D02*
X97758978Y-86698670D01*
X97525886Y-86715600D02*
X97608713Y-86715600D01*
X97375621Y-86698670D02*
X97525886Y-86715600D01*
X97232890Y-86648726D02*
X97375621Y-86698670D01*
X97104852Y-86568274D02*
X97232890Y-86648726D01*
X96997926Y-86461348D02*
X97104852Y-86568274D01*
X96917474Y-86333310D02*
X96997926Y-86461348D01*
X96867530Y-86190579D02*
X96917474Y-86333310D01*
X95067530Y-86190579D02*
X95117474Y-86333310D01*
X95050600Y-85732200D02*
X95050600Y-86040314D01*
X95046004Y-85691412D02*
X95050600Y-85732200D01*
X95032447Y-85652670D02*
X95046004Y-85691412D01*
X100678245Y-87600390D02*
X100792885Y-87672423D01*
X95050600Y-86040314D02*
X95067530Y-86190579D01*
X95010609Y-85617915D02*
X95032447Y-85652670D01*
X96667300Y-85548900D02*
X96708088Y-85553496D01*
X94981585Y-85588891D02*
X95010609Y-85617915D01*
X94946830Y-85567053D02*
X94981585Y-85588891D01*
X94908088Y-85553496D02*
X94946830Y-85567053D01*
X100582509Y-87504654D02*
X100678245Y-87600390D01*
X94867300Y-85548900D02*
X94908088Y-85553496D01*
X94753014Y-85588891D02*
X94787769Y-85567053D01*
X94723990Y-85617915D02*
X94753014Y-85588891D01*
X94688595Y-85691412D02*
X94702152Y-85652670D01*
X85902932Y-85286784D02*
X86042500Y-85426352D01*
X100510476Y-87390014D02*
X100582509Y-87504654D01*
X86042500Y-85426352D02*
X86042500Y-85810072D01*
X100920679Y-87717140D02*
X101055220Y-87732300D01*
X86042500Y-85810072D02*
X86948028Y-86715600D01*
X94617125Y-86333310D02*
X94667069Y-86190579D01*
X99032890Y-86648726D02*
X99175621Y-86698670D01*
X86948028Y-86715600D02*
X94008713Y-86715600D01*
X94684000Y-85732200D02*
X94688595Y-85691412D01*
X94429747Y-86568274D02*
X94536673Y-86461348D01*
X94008713Y-86715600D02*
X94158978Y-86698670D01*
X94536673Y-86461348D02*
X94617125Y-86333310D01*
X94826511Y-85553496D02*
X94867300Y-85548900D01*
X94787769Y-85567053D02*
X94826511Y-85553496D01*
X94158978Y-86698670D02*
X94301709Y-86648726D01*
X94702152Y-85652670D02*
X94723990Y-85617915D01*
X94301709Y-86648726D02*
X94429747Y-86568274D01*
X94667069Y-86190579D02*
X94684000Y-86040314D01*
X94684000Y-86040314D02*
X94684000Y-85732200D01*
X95117474Y-86333310D02*
X95197926Y-86461348D01*
X95197926Y-86461348D02*
X95304852Y-86568274D01*
X95304852Y-86568274D02*
X95432890Y-86648726D01*
X95432890Y-86648726D02*
X95575621Y-86698670D01*
X95575621Y-86698670D02*
X95725886Y-86715600D01*
X95725886Y-86715600D02*
X95808713Y-86715600D01*
X96850600Y-85732200D02*
X96850600Y-86040314D01*
X95808713Y-86715600D02*
X95958978Y-86698670D01*
X95958978Y-86698670D02*
X96101709Y-86648726D01*
X96101709Y-86648726D02*
X96229747Y-86568274D01*
X96229747Y-86568274D02*
X96336673Y-86461348D01*
X96336673Y-86461348D02*
X96417125Y-86333310D01*
X96417125Y-86333310D02*
X96467069Y-86190579D01*
X96467069Y-86190579D02*
X96484000Y-86040314D01*
X100465759Y-87262220D02*
X100510476Y-87390014D01*
X96484000Y-86040314D02*
X96484000Y-85732200D01*
X96484000Y-85732200D02*
X96488595Y-85691412D01*
X96488595Y-85691412D02*
X96502152Y-85652670D01*
X96502152Y-85652670D02*
X96523990Y-85617915D01*
X96850600Y-86040314D02*
X96867530Y-86190579D01*
X96523990Y-85617915D02*
X96553014Y-85588891D01*
X96553014Y-85588891D02*
X96587769Y-85567053D01*
X96587769Y-85567053D02*
X96626511Y-85553496D01*
X96626511Y-85553496D02*
X96667300Y-85548900D01*
X96708088Y-85553496D02*
X96746830Y-85567053D01*
X96746830Y-85567053D02*
X96781585Y-85588891D01*
X96781585Y-85588891D02*
X96810609Y-85617915D01*
X100792885Y-87672423D02*
X100920679Y-87717140D01*
X96810609Y-85617915D02*
X96832447Y-85652670D01*
X96832447Y-85652670D02*
X96846004Y-85691412D01*
X96846004Y-85691412D02*
X96850600Y-85732200D01*
X101055220Y-87732300D02*
X101279379Y-87732300D01*
X101279379Y-87732300D02*
X101413920Y-87717140D01*
X101413920Y-87717140D02*
X101541714Y-87672423D01*
X101541714Y-87672423D02*
X101656354Y-87600390D01*
X101656354Y-87600390D02*
X101752090Y-87504654D01*
X101752090Y-87504654D02*
X101824123Y-87390014D01*
X101824123Y-87390014D02*
X101868840Y-87262220D01*
X101868840Y-87262220D02*
X101884000Y-87127679D01*
X101884000Y-87127679D02*
X101884000Y-86823900D01*
X101884000Y-86823900D02*
X101886715Y-86799800D01*
X101886715Y-86799800D02*
X101894725Y-86776910D01*
X101894725Y-86776910D02*
X101907627Y-86756376D01*
X101907627Y-86756376D02*
X101924776Y-86739227D01*
X101924776Y-86739227D02*
X101945310Y-86726325D01*
X101945310Y-86726325D02*
X101968200Y-86718315D01*
X101968200Y-86718315D02*
X101992300Y-86715600D01*
X101992300Y-86715600D02*
X104155250Y-86715600D01*
X104155250Y-86715600D02*
X104216200Y-86776550D01*
X104216200Y-86776550D02*
X104216200Y-86956900D01*
%TO.N,CAM_SCL0*%
X82630998Y-87241098D02*
X99060270Y-87241098D01*
X99098370Y-87202998D02*
X99574530Y-87202998D01*
X99574530Y-87202998D02*
X100038766Y-87667234D01*
X99060270Y-87241098D02*
X99098370Y-87202998D01*
X81051400Y-85661500D02*
X82630998Y-87241098D01*
%TO.N,CAM_SDA0*%
X99149703Y-87596399D02*
X99289523Y-87736219D01*
X99364800Y-87731600D02*
X99294142Y-87731600D01*
X82186199Y-87596399D02*
X99149703Y-87596399D01*
X80086200Y-85496400D02*
X82186199Y-87596399D01*
X99294142Y-87731600D02*
X99289523Y-87736219D01*
%TO.N,SPI5_CS2_EXTERNAL1*%
X137292080Y-123550680D02*
X138816080Y-123550680D01*
X134467556Y-120726156D02*
X137292080Y-123550680D01*
X101001270Y-120726156D02*
X134467556Y-120726156D01*
X100882020Y-120606906D02*
X101001270Y-120726156D01*
%TO.N,SPI5_CS1_EXTERNAL1*%
X100515420Y-121729500D02*
X101213953Y-121030967D01*
X100355398Y-121729500D02*
X100515420Y-121729500D01*
X101213953Y-121030967D02*
X134335403Y-121030967D01*
X134335403Y-121030967D02*
X137723796Y-124419360D01*
X137723796Y-124419360D02*
X138821160Y-124419360D01*
%TO.N,SPI5_MOSI_EXTERNAL1*%
X100197197Y-122720100D02*
X101581519Y-121335778D01*
X99834700Y-122720100D02*
X100197197Y-122720100D01*
X134164247Y-121335778D02*
X137271844Y-124443375D01*
X137271844Y-124443375D02*
X137271844Y-125252396D01*
X101581519Y-121335778D02*
X134164247Y-121335778D01*
%TO.N,SPI5_MISO_EXTERNAL1*%
X136613900Y-124216498D02*
X136613900Y-126240540D01*
X99468339Y-123867183D02*
X99481181Y-123867183D01*
X99481181Y-123867183D02*
X101707775Y-121640589D01*
X101707775Y-121640589D02*
X134037991Y-121640589D01*
X134037991Y-121640589D02*
X136613900Y-124216498D01*
X136613900Y-126240540D02*
X137825480Y-127452120D01*
%TO.N,SPI5_SCK_EXTERNAL1*%
X99065048Y-124434589D02*
X98765049Y-124134590D01*
X100192840Y-124275570D02*
X100033821Y-124434589D01*
X100192840Y-123586591D02*
X100192840Y-124275570D01*
X100033821Y-124434589D02*
X99065048Y-124434589D01*
X101834031Y-121945400D02*
X100192840Y-123586591D01*
X133911735Y-121945400D02*
X101834031Y-121945400D01*
X136194789Y-126784089D02*
X136194789Y-124228456D01*
X136194789Y-124228456D02*
X133911735Y-121945400D01*
X137998200Y-128587500D02*
X136194789Y-126784089D01*
%TO.N,CAN_L_2-*%
X72603103Y-131990374D02*
X72303104Y-131690375D01*
X72603103Y-132465823D02*
X72603103Y-131990374D01*
X75783721Y-135646441D02*
X72603103Y-132465823D01*
X108376720Y-135244850D02*
X107975129Y-135646441D01*
X108376720Y-134561125D02*
X108376720Y-135244850D01*
X107975129Y-135646441D02*
X75783721Y-135646441D01*
X108929385Y-134008460D02*
X108376720Y-134561125D01*
X109353649Y-134008460D02*
X108929385Y-134008460D01*
%TO.N,CAN_H_2+*%
X71852147Y-132180384D02*
X71552148Y-131880385D01*
X108297772Y-135951252D02*
X75623015Y-135951252D01*
X109047280Y-135201744D02*
X108297772Y-135951252D01*
X109047280Y-134777480D02*
X109047280Y-135201744D01*
X75623015Y-135951252D02*
X71852147Y-132180384D01*
%TD*%
M02*
