%TF.GenerationSoftware,KiCad,Pcbnew,(5.1.8)-1*%
%TF.CreationDate,2021-06-12T11:00:53-04:00*%
%TF.ProjectId,pixc4-jetson-universal-carrier,70697863-342d-46a6-9574-736f6e2d756e,rev?*%
%TF.SameCoordinates,Original*%
%TF.FileFunction,Copper,L2,Inr*%
%TF.FilePolarity,Positive*%
%FSLAX46Y46*%
G04 Gerber Fmt 4.6, Leading zero omitted, Abs format (unit mm)*
G04 Created by KiCad (PCBNEW (5.1.8)-1) date 2021-06-12 11:00:53*
%MOMM*%
%LPD*%
G01*
G04 APERTURE LIST*
%TA.AperFunction,ComponentPad*%
%ADD10C,4.000000*%
%TD*%
%TA.AperFunction,ComponentPad*%
%ADD11C,1.600000*%
%TD*%
%TA.AperFunction,ComponentPad*%
%ADD12C,3.500000*%
%TD*%
%TA.AperFunction,ComponentPad*%
%ADD13R,3.500000X3.500000*%
%TD*%
%TA.AperFunction,ComponentPad*%
%ADD14C,1.400000*%
%TD*%
%TA.AperFunction,ComponentPad*%
%ADD15C,5.400000*%
%TD*%
%TA.AperFunction,ComponentPad*%
%ADD16C,0.800000*%
%TD*%
%TA.AperFunction,ViaPad*%
%ADD17C,0.600000*%
%TD*%
%TA.AperFunction,Conductor*%
%ADD18C,0.508000*%
%TD*%
%TA.AperFunction,Conductor*%
%ADD19C,0.152400*%
%TD*%
%TA.AperFunction,Conductor*%
%ADD20C,0.254000*%
%TD*%
G04 APERTURE END LIST*
D10*
%TO.N,*%
%TO.C,U5*%
X132105400Y-134734300D03*
X67105400Y-134734300D03*
X132105400Y-80734300D03*
X67105400Y-80734300D03*
%TD*%
D11*
%TO.N,+5V*%
%TO.C,J5*%
X120250000Y-88625000D03*
X95750000Y-88625000D03*
%TO.N,GND*%
X120250000Y-83875000D03*
X95750000Y-83875000D03*
%TD*%
%TO.N,+5V*%
%TO.C,J6*%
X120250000Y-131625000D03*
X95750000Y-131625000D03*
%TO.N,GND*%
X120250000Y-126875000D03*
X95750000Y-126875000D03*
%TD*%
D12*
%TO.N,Net-(D1-Pad1)*%
%TO.C,J27*%
X65194180Y-93920320D03*
D13*
%TO.N,GND*%
X65194180Y-88920320D03*
D14*
%TO.N,*%
X55194180Y-96920320D03*
X55194180Y-85920320D03*
%TD*%
D15*
%TO.N,GND*%
%TO.C,J4*%
X137500000Y-133750000D03*
D16*
X139525000Y-133750000D03*
X138931891Y-135181891D03*
X137500000Y-135775000D03*
X136068109Y-135181891D03*
X135475000Y-133750000D03*
X136068109Y-132318109D03*
X137500000Y-131725000D03*
X138931891Y-132318109D03*
%TD*%
D15*
%TO.N,GND*%
%TO.C,J3*%
X137500000Y-81750000D03*
D16*
X139525000Y-81750000D03*
X138931891Y-83181891D03*
X137500000Y-83775000D03*
X136068109Y-83181891D03*
X135475000Y-81750000D03*
X136068109Y-80318109D03*
X137500000Y-79725000D03*
X138931891Y-80318109D03*
%TD*%
D15*
%TO.N,GND*%
%TO.C,J2*%
X61500000Y-133750000D03*
D16*
X63525000Y-133750000D03*
X62931891Y-135181891D03*
X61500000Y-135775000D03*
X60068109Y-135181891D03*
X59475000Y-133750000D03*
X60068109Y-132318109D03*
X61500000Y-131725000D03*
X62931891Y-132318109D03*
%TD*%
D15*
%TO.N,GND*%
%TO.C,J1*%
X61500000Y-81750000D03*
D16*
X63525000Y-81750000D03*
X62931891Y-83181891D03*
X61500000Y-83775000D03*
X60068109Y-83181891D03*
X59475000Y-81750000D03*
X60068109Y-80318109D03*
X61500000Y-79725000D03*
X62931891Y-80318109D03*
%TD*%
D17*
%TO.N,GND*%
X145694400Y-89662000D03*
X76085700Y-103860600D03*
X74917300Y-103886000D03*
X75463400Y-103035100D03*
X76009500Y-102108000D03*
X74968100Y-102108000D03*
X125082300Y-89471500D03*
X95872300Y-100393500D03*
X96913700Y-100393500D03*
X95821500Y-102171500D03*
X96367600Y-101320600D03*
X96989900Y-102146100D03*
X127000000Y-91706700D03*
X104228900Y-81216500D03*
X68478400Y-84251800D03*
X74777600Y-86728300D03*
X68491100Y-88646000D03*
X71932800Y-85877400D03*
X61269880Y-102707440D03*
X63068200Y-98907600D03*
X64833500Y-108394500D03*
X63911480Y-116591080D03*
X64211200Y-123101100D03*
X85331300Y-101638100D03*
X84467700Y-96405700D03*
X73596500Y-96964500D03*
X95135700Y-96304100D03*
X108140500Y-109562900D03*
X105752900Y-116827300D03*
X115887500Y-116471700D03*
X119265700Y-108242100D03*
X133604000Y-112712500D03*
X133096000Y-123609100D03*
X143357600Y-81673700D03*
X125920500Y-80098900D03*
X111175800Y-124358400D03*
X111988600Y-124409200D03*
X144322800Y-92281658D03*
X144132300Y-96139000D03*
X100470990Y-127500292D03*
X104250005Y-127336658D03*
X105501442Y-131211610D03*
X107858560Y-87055960D03*
X138506200Y-95930720D03*
X137105181Y-99939699D03*
X131394200Y-102895400D03*
X128727200Y-100545900D03*
X125488700Y-101498400D03*
X129616200Y-107340400D03*
X126504700Y-105625900D03*
X109994700Y-116166900D03*
X135077200Y-119532400D03*
X129489200Y-123596400D03*
X127838200Y-135089900D03*
X127012700Y-127469900D03*
X83324700Y-117182900D03*
X86499700Y-122834400D03*
X79324200Y-122707400D03*
X80848200Y-127215900D03*
X89039700Y-127215900D03*
X71259700Y-135343900D03*
X65671700Y-130644900D03*
X63068200Y-105371900D03*
X64147700Y-84797900D03*
X69291200Y-96926400D03*
X87896700Y-108292900D03*
X111772700Y-106514900D03*
X108280200Y-95783400D03*
X127965200Y-119405400D03*
X143522700Y-134454900D03*
X55003700Y-80924400D03*
X122694700Y-123532900D03*
X120599200Y-115531900D03*
X106311700Y-107149900D03*
X109042200Y-104609900D03*
X133870700Y-100164900D03*
X115201700Y-91528900D03*
%TO.N,+BATT*%
X104216200Y-93891100D03*
X108394500Y-87604600D03*
X86372700Y-103911400D03*
X75336400Y-131114800D03*
%TO.N,+VDD_SERVO*%
X138447085Y-105261985D03*
X116398040Y-128188720D03*
%TO.N,+5V*%
X75692000Y-85521800D03*
X85051900Y-130721100D03*
X75184000Y-124091700D03*
X76098400Y-124079000D03*
X77012800Y-124066300D03*
X76987400Y-123202700D03*
X75158600Y-123228100D03*
X76073000Y-123215400D03*
X68453000Y-104521000D03*
X53073300Y-132600700D03*
%TO.N,3V3_SYS*%
X80759300Y-87058500D03*
X117500399Y-79844901D03*
%TO.N,USB2-*%
X113739846Y-85542562D03*
X137827849Y-98077721D03*
%TO.N,USB2+*%
X113247673Y-86721805D03*
X137662326Y-99252751D03*
%TO.N,PORT_VBUS_2*%
X112217200Y-81483200D03*
X141798240Y-96894375D03*
%TO.N,USB3-*%
X111391700Y-85801200D03*
X137627360Y-107741720D03*
%TO.N,USB3+*%
X110964548Y-86451214D03*
X137302240Y-108452920D03*
%TO.N,PORT_VBUS_3*%
X110629700Y-81407000D03*
X141798240Y-106029690D03*
%TO.N,USB4-*%
X109346858Y-85491485D03*
X139856278Y-116600960D03*
%TO.N,USB4+*%
X139856278Y-117408670D03*
X108828756Y-86085854D03*
%TO.N,PORT_VBUS_4*%
X140182600Y-115125500D03*
X108846325Y-81465125D03*
%TO.N,USB5-*%
X107416600Y-85623400D03*
X139471400Y-125948160D03*
X106717290Y-94201401D03*
%TO.N,USB5+*%
X106667299Y-85832063D03*
X139471400Y-126832640D03*
X105869460Y-94030800D03*
%TO.N,PORT_VBUS_5*%
X139598400Y-124256800D03*
X109181900Y-80556100D03*
X122034300Y-80683100D03*
X122022166Y-86105898D03*
%TO.N,ETH_RADIO_TX_N*%
X102335801Y-81514220D03*
X122455940Y-103014780D03*
%TO.N,ETH_RADIO_TX_P*%
X101762681Y-81001322D03*
X121208800Y-103479600D03*
%TO.N,ETH_RADIO_RX_N*%
X100850700Y-80860900D03*
X112731920Y-104299120D03*
%TO.N,ETH_RADIO_RX_P*%
X100109878Y-80729344D03*
X113670484Y-104274216D03*
%TO.N,ETH_SPARE_RX_P*%
X99767855Y-81528576D03*
X127464830Y-87396310D03*
%TO.N,ETH_SPARE_RX_N*%
X99160706Y-81084172D03*
X127429765Y-88671400D03*
%TO.N,ETH_SPARE_TX_P*%
X98494149Y-81433207D03*
X127464810Y-95016330D03*
%TO.N,ETH_SPARE_TX_N*%
X97775407Y-81655767D03*
X127464813Y-96286327D03*
%TO.N,XAVIER_CONSOLE_TX_OUT*%
X97612200Y-88315800D03*
X58547000Y-104432100D03*
%TO.N,XAVIER_CONSOLE_RX_IN*%
X58508900Y-105625900D03*
X97574100Y-89458800D03*
%TO.N,FMU_I2C_1_SDA*%
X103746300Y-124129800D03*
X59324242Y-122174000D03*
%TO.N,FMU_I2C_1_SCL*%
X102990943Y-123611586D03*
X58518921Y-120522869D03*
%TO.N,GPS1_RX*%
X102359445Y-123202521D03*
X58860348Y-119852383D03*
%TO.N,GPS1_TX*%
X58877200Y-118795800D03*
X102171310Y-122474010D03*
%TO.N,+VDD_5V_PERIPH*%
X144246600Y-103352288D03*
X144180128Y-99641634D03*
X98272600Y-127520700D03*
X101750008Y-127336657D03*
X55511700Y-128701800D03*
X97637600Y-134967668D03*
X58740040Y-117495320D03*
X112127789Y-134558761D03*
X110073440Y-135097520D03*
X106299000Y-135082280D03*
X107604551Y-135117831D03*
X140221660Y-129980380D03*
X60126880Y-128671320D03*
X59496960Y-115935760D03*
%TO.N,BATT_VOLTAGE_SENS_PROT*%
X115627082Y-130095237D03*
X58269562Y-101210800D03*
%TO.N,BATT_CURRENT_SENS_PROT*%
X115087400Y-130619500D03*
X58242200Y-102382320D03*
%TO.N,FMU-CH1-PROT*%
X143484600Y-92240100D03*
X102526010Y-130871221D03*
%TO.N,IO-CH8-PROT*%
X144373600Y-90627200D03*
X102039609Y-130297168D03*
%TO.N,IO-CH7-PROT*%
X144373600Y-87668100D03*
X101388155Y-130673640D03*
%TO.N,IO-CH6-PROT*%
X138275161Y-102645571D03*
X100716370Y-131012503D03*
%TO.N,IO-CH5-PROT*%
X100519283Y-129909783D03*
X137617200Y-100700840D03*
%TO.N,IO-CH4-PROT*%
X138363195Y-96967805D03*
X99776570Y-130030207D03*
%TO.N,IO-CH3-PROT*%
X141401842Y-93675227D03*
X99544316Y-129257257D03*
%TO.N,IO-CH2-PROT*%
X98796130Y-129177622D03*
X137748135Y-90544864D03*
%TO.N,IO-CH1-PROT*%
X98209100Y-128422400D03*
X139823041Y-86846559D03*
%TO.N,ETH_RADIO_TX_POSTMAG_N*%
X117936501Y-85499521D03*
X122455936Y-94569284D03*
%TO.N,ETH_RADIO_TX_POSTMAG_P*%
X116285922Y-85888732D03*
X121158505Y-94596715D03*
%TO.N,ETH_RADIO_RX_POSTMAG_N*%
X114835940Y-94569280D03*
X114854010Y-87768988D03*
%TO.N,ETH_RADIO_RX_POSTMAG_P*%
X113565940Y-94569280D03*
X113896645Y-87334855D03*
%TO.N,ETH_SPARE_TX_POSTMAG_N*%
X137493245Y-96097855D03*
%TO.N,ETH_SPARE_TX_POSTMAG_P*%
X136857296Y-95461907D03*
%TO.N,ETH_SPARE_RX_POSTMAG_N*%
X137680700Y-88480900D03*
%TO.N,ETH_SPARE_RX_POSTMAG_P*%
X137655300Y-87617300D03*
%TO.N,Net-(C20-Pad1)*%
X98717100Y-103936800D03*
X93636840Y-102044400D03*
%TO.N,Net-(D4-Pad1)*%
X53924200Y-135483600D03*
%TO.N,Net-(C21-Pad1)*%
X77978000Y-105537000D03*
X72752960Y-103794460D03*
%TO.N,+5V_FMU*%
X109499400Y-124129800D03*
X89090500Y-102730300D03*
X91236800Y-117919500D03*
X57124600Y-132181600D03*
X97726500Y-115112800D03*
X114554000Y-120197546D03*
X98557080Y-115097560D03*
X89103200Y-129692400D03*
%TO.N,Net-(D5-Pad1)*%
X56553100Y-135445500D03*
%TO.N,IRID_ON_OFF_3.3*%
X77050900Y-85255100D03*
X112217200Y-91605100D03*
%TO.N,IRID_TX_IN_3.3*%
X78155800Y-85305900D03*
X111772710Y-90930419D03*
%TO.N,IRID_RING_3.3*%
X79425800Y-82245200D03*
X110944111Y-91478100D03*
%TO.N,IRID_NA_3.3*%
X80657700Y-82270600D03*
X110326413Y-91907702D03*
%TO.N,IRID_RX_OUT_3.3*%
X109590480Y-92064262D03*
X84442300Y-81876900D03*
%TO.N,CAM1_D2_N*%
X109409465Y-90959095D03*
X85420200Y-86004400D03*
%TO.N,CAM1_D2_P*%
X108877100Y-91490800D03*
X85151489Y-86707183D03*
%TO.N,CAM1_D3_N*%
X84010500Y-85445600D03*
X107899200Y-91643200D03*
%TO.N,CAM1_D3_P*%
X107087969Y-92349610D03*
X83096100Y-85344000D03*
%TO.N,CAM1_D0_N*%
X89877900Y-85178900D03*
X105933786Y-85573315D03*
%TO.N,CAM1_D0_P*%
X105498900Y-86194900D03*
X89001600Y-85140800D03*
%TO.N,CAM1_C_N*%
X104731809Y-86399379D03*
X86575900Y-84950300D03*
%TO.N,CAM1_C_P*%
X104216200Y-86956900D03*
X85902932Y-85286784D03*
%TO.N,CAM1_D1_N*%
X103190900Y-87314458D03*
X88074965Y-85065452D03*
%TO.N,CAM1_D1_P*%
X102730300Y-87909400D03*
X87515700Y-85568772D03*
%TO.N,CAM_GPIO*%
X99961700Y-91211400D03*
X82448400Y-85966300D03*
%TO.N,CAM_SCL0*%
X100038766Y-87667234D03*
X81051400Y-85661500D03*
%TO.N,CAM_SDA0*%
X99289523Y-87736219D03*
X80086200Y-85496400D03*
%TO.N,RC_INPUT*%
X107873800Y-123510040D03*
X58491120Y-109407960D03*
%TO.N,+VDD_5V_RADIO*%
X107177840Y-122682000D03*
X58301380Y-110599980D03*
%TO.N,BUZZER_OUT*%
X106407958Y-124035555D03*
X58643481Y-127110191D03*
%TO.N,SAFETY_VDD*%
X105882440Y-123240800D03*
X58390511Y-126052980D03*
%TO.N,~SAFETY_SWITCH_LED_OUT*%
X105151715Y-123620506D03*
X61165740Y-124929900D03*
%TO.N,SAFETY_SWITCH_IN*%
X104632470Y-124203724D03*
X58372688Y-123714160D03*
%TO.N,SPI5_CS2_EXTERNAL1*%
X100882020Y-120606906D03*
X138816080Y-123550680D03*
%TO.N,SPI5_CS1_EXTERNAL1*%
X100355398Y-121729500D03*
X138821160Y-124419360D03*
%TO.N,SPI5_MOSI_EXTERNAL1*%
X99834700Y-122720100D03*
X137271844Y-125252396D03*
%TO.N,SPI5_MISO_EXTERNAL1*%
X99468339Y-123867183D03*
X137825480Y-127452120D03*
%TO.N,SPI5_SCK_EXTERNAL1*%
X137998200Y-128587500D03*
X98765049Y-124134590D03*
%TO.N,TELEM1_TX*%
X55511700Y-127431800D03*
X114385281Y-135702275D03*
%TO.N,TELEM1_RX*%
X55486300Y-126212600D03*
X113671026Y-135465711D03*
%TO.N,TELEM1_CTS*%
X55422800Y-124955300D03*
X112932693Y-135320835D03*
%TO.N,TELEM1_RTS*%
X55384700Y-123710700D03*
X112148676Y-135357284D03*
%TO.N,CAN_L_1-*%
X144208500Y-101193600D03*
X111381030Y-134466700D03*
%TO.N,CAN_H_1+*%
X144208500Y-100393500D03*
X110724418Y-134099300D03*
%TO.N,CAN_L_2-*%
X58643520Y-113477040D03*
X72303104Y-131690375D03*
X109353649Y-134008460D03*
%TO.N,CAN_H_2+*%
X58577480Y-114614960D03*
X109047280Y-134777480D03*
X71552148Y-131880385D03*
%TO.N,FMU_I2C_2_SDA*%
X144297400Y-106006900D03*
X107610456Y-134289770D03*
%TO.N,FMU_I2C_2_SCL*%
X144200676Y-105260742D03*
X106858090Y-134298105D03*
%TO.N,FMU-CH6-PROT*%
X138775440Y-113284000D03*
X104734650Y-133684532D03*
%TO.N,FMU-CH5-PROT*%
X138744960Y-114518440D03*
X104140290Y-134213688D03*
%TO.N,FMU-CH4-PROT*%
X103548204Y-134683445D03*
X138315700Y-115214400D03*
%TO.N,FMU-CH3-PROT*%
X102808149Y-134547695D03*
X137754360Y-118150640D03*
%TO.N,FMU-CH2-PROT*%
X144043400Y-97015300D03*
X103270711Y-130978665D03*
%TD*%
D18*
%TO.N,+BATT*%
X86372700Y-103911400D02*
X86372700Y-118529100D01*
X75336400Y-129565400D02*
X75336400Y-131114800D01*
X86372700Y-118529100D02*
X75336400Y-129565400D01*
D19*
%TO.N,+VDD_SERVO*%
X138447085Y-105261985D02*
X138157841Y-105261985D01*
X116398040Y-127021786D02*
X116398040Y-128188720D01*
X138157841Y-105261985D02*
X116398040Y-127021786D01*
D20*
%TO.N,3V3_SYS*%
X87664284Y-79844901D02*
X117500399Y-79844901D01*
X80759300Y-86749885D02*
X87664284Y-79844901D01*
X80759300Y-87058500D02*
X80759300Y-86749885D01*
%TO.N,PORT_VBUS_5*%
X122034300Y-80683100D02*
X122034300Y-86093764D01*
X122034300Y-86093764D02*
X122022166Y-86105898D01*
D19*
%TO.N,ETH_SPARE_RX_P*%
X99767855Y-81528576D02*
X102186279Y-83947000D01*
X102186279Y-83947000D02*
X118033800Y-83947000D01*
X118033800Y-83947000D02*
X121483110Y-87396310D01*
X121483110Y-87396310D02*
X127464830Y-87396310D01*
%TO.N,ETH_SPARE_RX_N*%
X121196100Y-87947500D02*
X126705865Y-87947500D01*
X117729000Y-84480400D02*
X121196100Y-87947500D01*
X126705865Y-87947500D02*
X127429765Y-88671400D01*
X101730828Y-84480400D02*
X117729000Y-84480400D01*
X99160706Y-81910278D02*
X101730828Y-84480400D01*
X99160706Y-81084172D02*
X99160706Y-81910278D01*
%TO.N,ETH_SPARE_TX_P*%
X126944130Y-95016330D02*
X127464810Y-95016330D01*
X125095000Y-93167200D02*
X126944130Y-95016330D01*
X106997500Y-93167200D02*
X125095000Y-93167200D01*
X98494149Y-84663849D02*
X106997500Y-93167200D01*
X98494149Y-81433207D02*
X98494149Y-84663849D01*
%TO.N,ETH_SPARE_TX_N*%
X106768900Y-93649800D02*
X124828286Y-93649800D01*
X97775407Y-81655767D02*
X97775407Y-84656307D01*
X97775407Y-84656307D02*
X106768900Y-93649800D01*
X124828286Y-93649800D02*
X127464813Y-96286327D01*
%TO.N,XAVIER_CONSOLE_TX_OUT*%
X60502800Y-104432100D02*
X58547000Y-104432100D01*
X66103500Y-98831400D02*
X60502800Y-104432100D01*
X87693500Y-98831400D02*
X66103500Y-98831400D01*
X96977200Y-89547700D02*
X87693500Y-98831400D01*
X96977200Y-88950800D02*
X96977200Y-89547700D01*
X97612200Y-88315800D02*
X96977200Y-88950800D01*
%TO.N,XAVIER_CONSOLE_RX_IN*%
X58508900Y-105625900D02*
X59918600Y-105625900D01*
X59918600Y-105625900D02*
X66395600Y-99148900D01*
X66395600Y-99148900D02*
X87884000Y-99148900D01*
X87884000Y-99148900D02*
X97574100Y-89458800D01*
D20*
%TO.N,+VDD_5V_PERIPH*%
X144856512Y-103352288D02*
X144246600Y-103352288D01*
X145237200Y-102971600D02*
X144856512Y-103352288D01*
X145237200Y-100097480D02*
X145237200Y-102971600D01*
X144781354Y-99641634D02*
X145237200Y-100097480D01*
X144180128Y-99641634D02*
X144781354Y-99641634D01*
X112127789Y-134558761D02*
X111589030Y-135097520D01*
X111589030Y-135097520D02*
X110073440Y-135097520D01*
X97637600Y-134967668D02*
X98223013Y-135553081D01*
X105828199Y-135553081D02*
X106299000Y-135082280D01*
X98223013Y-135553081D02*
X105828199Y-135553081D01*
X107569000Y-135082280D02*
X107604551Y-135117831D01*
X109610881Y-135560079D02*
X108046799Y-135560079D01*
X108046799Y-135560079D02*
X107604551Y-135117831D01*
X106299000Y-135082280D02*
X107569000Y-135082280D01*
X110073440Y-135097520D02*
X109610881Y-135560079D01*
X116706170Y-129980380D02*
X140221660Y-129980380D01*
X144246600Y-103352288D02*
X145211488Y-104317176D01*
X145211488Y-104317176D02*
X145211488Y-124990552D01*
X145211488Y-124990552D02*
X140221660Y-129980380D01*
X112127789Y-134558761D02*
X116706170Y-129980380D01*
D19*
%TO.N,FMU-CH1-PROT*%
X143484600Y-92240100D02*
X143484600Y-99045834D01*
X143484600Y-99045834D02*
X112152245Y-130378189D01*
X103019042Y-130378189D02*
X102526010Y-130871221D01*
X112152245Y-130378189D02*
X103019042Y-130378189D01*
%TO.N,IO-CH8-PROT*%
X112025989Y-130073378D02*
X102263399Y-130073378D01*
X142955998Y-96518947D02*
X139456452Y-100018493D01*
X144373600Y-90627200D02*
X143949336Y-90627200D01*
X139456452Y-100018493D02*
X139456452Y-100379785D01*
X139456452Y-100379785D02*
X139395178Y-100441059D01*
X139395178Y-100441059D02*
X139395178Y-102704189D01*
X139395178Y-102704189D02*
X112025989Y-130073378D01*
X102263399Y-130073378D02*
X102039609Y-130297168D01*
X143949336Y-90627200D02*
X142955998Y-91620538D01*
X142955998Y-91620538D02*
X142955998Y-96518947D01*
%TO.N,IO-CH7-PROT*%
X101388155Y-129908208D02*
X101388155Y-130673640D01*
X101527796Y-129768567D02*
X101388155Y-129908208D01*
X111899733Y-129768567D02*
X101527796Y-129768567D01*
X139090367Y-100314803D02*
X139090367Y-102577933D01*
X141930443Y-90111257D02*
X141930443Y-95979842D01*
X144373600Y-87668100D02*
X141930443Y-90111257D01*
X141930443Y-95979842D02*
X139151641Y-98758644D01*
X139151641Y-98758644D02*
X139151641Y-100253529D01*
X139090367Y-102577933D02*
X111899733Y-129768567D01*
X139151641Y-100253529D02*
X139090367Y-100314803D01*
%TO.N,IO-CH6-PROT*%
X111725609Y-129463756D02*
X101401540Y-129463756D01*
X101047884Y-129817412D02*
X101047884Y-130256725D01*
X138275161Y-102645571D02*
X137975162Y-102945570D01*
X137975162Y-102945570D02*
X137975162Y-103193491D01*
X101401540Y-129463756D02*
X101047884Y-129817412D01*
X101047884Y-130256725D02*
X100716370Y-130588239D01*
X100716370Y-130588239D02*
X100716370Y-131012503D01*
X134878722Y-106289931D02*
X134878722Y-106310643D01*
X134878722Y-106310643D02*
X111725609Y-129463756D01*
X137975162Y-103193491D02*
X134878722Y-106289931D01*
%TO.N,IO-CH5-PROT*%
X134573911Y-106163675D02*
X137617200Y-103120386D01*
X100519283Y-129909783D02*
X100524446Y-129909783D01*
X100524446Y-129909783D02*
X101275284Y-129158945D01*
X101275284Y-129158945D02*
X111599353Y-129158945D01*
X111599353Y-129158945D02*
X134573911Y-106184387D01*
X134573911Y-106184387D02*
X134573911Y-106163675D01*
X137617200Y-103120386D02*
X137617200Y-101125104D01*
X137617200Y-101125104D02*
X137617200Y-100700840D01*
%TO.N,IO-CH4-PROT*%
X99776570Y-129807335D02*
X99776570Y-130030207D01*
X137938931Y-96967805D02*
X136156731Y-98750005D01*
X136156731Y-98750005D02*
X136156731Y-104149788D01*
X111465767Y-128854134D02*
X101149028Y-128854134D01*
X134269100Y-106050801D02*
X111465767Y-128854134D01*
X100638450Y-128945455D02*
X99776570Y-129807335D01*
X101149028Y-128854134D02*
X101057707Y-128945455D01*
X136156731Y-104149788D02*
X134269100Y-106037419D01*
X134269100Y-106037419D02*
X134269100Y-106050801D01*
X138363195Y-96967805D02*
X137938931Y-96967805D01*
X101057707Y-128945455D02*
X100638450Y-128945455D01*
%TO.N,IO-CH3-PROT*%
X141401842Y-93675227D02*
X137861646Y-93675227D01*
X111339511Y-128549323D02*
X101022772Y-128549323D01*
X100160929Y-128640644D02*
X99544316Y-129257257D01*
X135851920Y-95684953D02*
X135851920Y-104023532D01*
X101022772Y-128549323D02*
X100931451Y-128640644D01*
X133964289Y-105911163D02*
X133964289Y-105924545D01*
X137861646Y-93675227D02*
X135851920Y-95684953D01*
X100931451Y-128640644D02*
X100160929Y-128640644D01*
X133964289Y-105924545D02*
X111339511Y-128549323D01*
X135851920Y-104023532D02*
X133964289Y-105911163D01*
%TO.N,IO-CH2-PROT*%
X131406533Y-108051233D02*
X131483100Y-107974666D01*
X100896516Y-128244512D02*
X100805195Y-128335833D01*
X131406533Y-108051233D02*
X111213255Y-128244512D01*
X111213255Y-128244512D02*
X100896516Y-128244512D01*
X100805195Y-128335833D02*
X99637919Y-128335833D01*
X99637919Y-128335833D02*
X98796130Y-129177622D01*
X133659478Y-105798288D02*
X133659478Y-105784907D01*
X131406533Y-108051233D02*
X133659478Y-105798288D01*
X133659478Y-105784907D02*
X135547109Y-103897277D01*
X135547109Y-103897277D02*
X135547109Y-92745890D01*
X135547109Y-92745890D02*
X137748135Y-90544864D01*
%TO.N,IO-CH1-PROT*%
X98209100Y-128422400D02*
X98600478Y-128031022D01*
X98600478Y-128031022D02*
X100678939Y-128031022D01*
X135242299Y-91851565D02*
X139823041Y-87270823D01*
X139823041Y-87270823D02*
X139823041Y-86846559D01*
X100770260Y-127939701D02*
X111086999Y-127939701D01*
X135242298Y-103771022D02*
X135242299Y-91851565D01*
X133354667Y-105658651D02*
X135242298Y-103771022D01*
X133354667Y-105672033D02*
X133354667Y-105658651D01*
X100678939Y-128031022D02*
X100770260Y-127939701D01*
X111086999Y-127939701D02*
X133354667Y-105672033D01*
%TO.N,Net-(C20-Pad1)*%
X95529240Y-103936800D02*
X93636840Y-102044400D01*
X98717100Y-103936800D02*
X95529240Y-103936800D01*
%TO.N,Net-(C21-Pad1)*%
X74495500Y-105537000D02*
X72752960Y-103794460D01*
X77978000Y-105537000D02*
X74495500Y-105537000D01*
%TO.N,+5V_FMU*%
X89090500Y-115773200D02*
X91236800Y-117919500D01*
X89090500Y-102730300D02*
X89090500Y-115773200D01*
X109499400Y-124129800D02*
X110621746Y-124129800D01*
X110621746Y-124129800D02*
X114554000Y-120197546D01*
D18*
X98150764Y-115112800D02*
X97726500Y-115112800D01*
X109499400Y-123705536D02*
X100906664Y-115112800D01*
X100906664Y-115112800D02*
X98150764Y-115112800D01*
X109499400Y-124129800D02*
X109499400Y-123705536D01*
D19*
X91236800Y-117919500D02*
X91236800Y-127558800D01*
X91236800Y-127558800D02*
X89103200Y-129692400D01*
%TO.N,CAN_L_2-*%
X72003105Y-131390376D02*
X72303104Y-131690375D01*
X71750442Y-131390376D02*
X72003105Y-131390376D01*
X62428120Y-115672324D02*
X62428120Y-122068054D01*
X62428120Y-122068054D02*
X71750442Y-131390376D01*
X60700196Y-113944400D02*
X62428120Y-115672324D01*
X59110880Y-113944400D02*
X60700196Y-113944400D01*
X58643520Y-113477040D02*
X59110880Y-113944400D01*
%TO.N,CAN_H_2+*%
X62042040Y-122214640D02*
X71552148Y-131724748D01*
X62042040Y-115818920D02*
X62042040Y-122214640D01*
X71552148Y-131724748D02*
X71552148Y-131880385D01*
X60497720Y-114274600D02*
X62042040Y-115818920D01*
X59141360Y-114274600D02*
X60497720Y-114274600D01*
X58801000Y-114614960D02*
X59141360Y-114274600D01*
X58577480Y-114614960D02*
X58801000Y-114614960D01*
%TO.N,FMU_I2C_2_SDA*%
X116326196Y-129473960D02*
X114974906Y-129473960D01*
X114974906Y-129473960D02*
X113156246Y-131292620D01*
X110607606Y-131292620D02*
X107610456Y-134289770D01*
X144297400Y-106006900D02*
X143406141Y-106898159D01*
X117546129Y-126735831D02*
X117546129Y-128254028D01*
X113156246Y-131292620D02*
X110607606Y-131292620D01*
X117546129Y-128254028D02*
X116326196Y-129473960D01*
X137383801Y-106898159D02*
X117546129Y-126735831D01*
X143406141Y-106898159D02*
X137383801Y-106898159D01*
%TO.N,FMU_I2C_2_SCL*%
X113029991Y-130987809D02*
X109744121Y-130987810D01*
X109744121Y-130987810D02*
X106858090Y-133873841D01*
X141784858Y-105260742D02*
X141255014Y-105790586D01*
X106858090Y-133873841D02*
X106858090Y-134298105D01*
X117241318Y-128127772D02*
X116250730Y-129118360D01*
X141255014Y-105790586D02*
X138060307Y-105790586D01*
X144200676Y-105260742D02*
X141784858Y-105260742D01*
X116250730Y-129118360D02*
X114899440Y-129118360D01*
X117241318Y-126609575D02*
X117241318Y-128127772D01*
X114899440Y-129118360D02*
X113029991Y-130987809D01*
X138060307Y-105790586D02*
X117241318Y-126609575D01*
%TO.N,FMU-CH2-PROT*%
X103566376Y-130683000D02*
X103270711Y-130978665D01*
X144043400Y-97015300D02*
X144043400Y-98918101D01*
X144043400Y-98918101D02*
X112278501Y-130683000D01*
X112278501Y-130683000D02*
X103566376Y-130683000D01*
%TD*%
M02*
