%TF.GenerationSoftware,KiCad,Pcbnew,(5.1.8)-1*%
%TF.CreationDate,2021-06-12T11:00:53-04:00*%
%TF.ProjectId,pixc4-jetson-universal-carrier,70697863-342d-46a6-9574-736f6e2d756e,rev?*%
%TF.SameCoordinates,Original*%
%TF.FileFunction,Copper,L7,Inr*%
%TF.FilePolarity,Positive*%
%FSLAX46Y46*%
G04 Gerber Fmt 4.6, Leading zero omitted, Abs format (unit mm)*
G04 Created by KiCad (PCBNEW (5.1.8)-1) date 2021-06-12 11:00:53*
%MOMM*%
%LPD*%
G01*
G04 APERTURE LIST*
%TA.AperFunction,ComponentPad*%
%ADD10C,4.000000*%
%TD*%
%TA.AperFunction,ComponentPad*%
%ADD11C,1.600000*%
%TD*%
%TA.AperFunction,ComponentPad*%
%ADD12C,3.500000*%
%TD*%
%TA.AperFunction,ComponentPad*%
%ADD13R,3.500000X3.500000*%
%TD*%
%TA.AperFunction,ComponentPad*%
%ADD14C,1.400000*%
%TD*%
%TA.AperFunction,ComponentPad*%
%ADD15C,5.400000*%
%TD*%
%TA.AperFunction,ComponentPad*%
%ADD16C,0.800000*%
%TD*%
%TA.AperFunction,ViaPad*%
%ADD17C,0.600000*%
%TD*%
%TA.AperFunction,Conductor*%
%ADD18C,0.381000*%
%TD*%
%TA.AperFunction,Conductor*%
%ADD19C,0.152400*%
%TD*%
%TA.AperFunction,Conductor*%
%ADD20C,0.304800*%
%TD*%
G04 APERTURE END LIST*
D10*
%TO.N,*%
%TO.C,U5*%
X132105400Y-134734300D03*
X67105400Y-134734300D03*
X132105400Y-80734300D03*
X67105400Y-80734300D03*
%TD*%
D11*
%TO.N,+5V*%
%TO.C,J5*%
X120250000Y-88625000D03*
X95750000Y-88625000D03*
%TO.N,GND*%
X120250000Y-83875000D03*
X95750000Y-83875000D03*
%TD*%
%TO.N,+5V*%
%TO.C,J6*%
X120250000Y-131625000D03*
X95750000Y-131625000D03*
%TO.N,GND*%
X120250000Y-126875000D03*
X95750000Y-126875000D03*
%TD*%
D12*
%TO.N,Net-(D1-Pad1)*%
%TO.C,J27*%
X65194180Y-93920320D03*
D13*
%TO.N,GND*%
X65194180Y-88920320D03*
D14*
%TO.N,*%
X55194180Y-96920320D03*
X55194180Y-85920320D03*
%TD*%
D15*
%TO.N,GND*%
%TO.C,J4*%
X137500000Y-133750000D03*
D16*
X139525000Y-133750000D03*
X138931891Y-135181891D03*
X137500000Y-135775000D03*
X136068109Y-135181891D03*
X135475000Y-133750000D03*
X136068109Y-132318109D03*
X137500000Y-131725000D03*
X138931891Y-132318109D03*
%TD*%
D15*
%TO.N,GND*%
%TO.C,J3*%
X137500000Y-81750000D03*
D16*
X139525000Y-81750000D03*
X138931891Y-83181891D03*
X137500000Y-83775000D03*
X136068109Y-83181891D03*
X135475000Y-81750000D03*
X136068109Y-80318109D03*
X137500000Y-79725000D03*
X138931891Y-80318109D03*
%TD*%
D15*
%TO.N,GND*%
%TO.C,J2*%
X61500000Y-133750000D03*
D16*
X63525000Y-133750000D03*
X62931891Y-135181891D03*
X61500000Y-135775000D03*
X60068109Y-135181891D03*
X59475000Y-133750000D03*
X60068109Y-132318109D03*
X61500000Y-131725000D03*
X62931891Y-132318109D03*
%TD*%
D15*
%TO.N,GND*%
%TO.C,J1*%
X61500000Y-81750000D03*
D16*
X63525000Y-81750000D03*
X62931891Y-83181891D03*
X61500000Y-83775000D03*
X60068109Y-83181891D03*
X59475000Y-81750000D03*
X60068109Y-80318109D03*
X61500000Y-79725000D03*
X62931891Y-80318109D03*
%TD*%
D17*
%TO.N,GND*%
X145694400Y-89662000D03*
X76085700Y-103860600D03*
X74917300Y-103886000D03*
X75463400Y-103035100D03*
X76009500Y-102108000D03*
X74968100Y-102108000D03*
X125082300Y-89471500D03*
X95872300Y-100393500D03*
X96913700Y-100393500D03*
X95821500Y-102171500D03*
X96367600Y-101320600D03*
X96989900Y-102146100D03*
X127000000Y-91706700D03*
X104228900Y-81216500D03*
X68478400Y-84251800D03*
X74777600Y-86728300D03*
X68491100Y-88646000D03*
X71932800Y-85877400D03*
X61269880Y-102707440D03*
X63068200Y-98907600D03*
X64833500Y-108394500D03*
X63911480Y-116591080D03*
X64211200Y-123101100D03*
X85331300Y-101638100D03*
X84467700Y-96405700D03*
X73596500Y-96964500D03*
X95135700Y-96304100D03*
X108140500Y-109562900D03*
X105752900Y-116827300D03*
X115887500Y-116471700D03*
X119265700Y-108242100D03*
X133604000Y-112712500D03*
X133096000Y-123609100D03*
X143357600Y-81673700D03*
X125920500Y-80098900D03*
X111175800Y-124358400D03*
X111988600Y-124409200D03*
X144322800Y-92281658D03*
X144132300Y-96139000D03*
X100470990Y-127500292D03*
X104250005Y-127336658D03*
X105501442Y-131211610D03*
X107858560Y-87055960D03*
X138506200Y-95930720D03*
X137105181Y-99939699D03*
X131394200Y-102895400D03*
X128727200Y-100545900D03*
X125488700Y-101498400D03*
X129616200Y-107340400D03*
X126504700Y-105625900D03*
X109994700Y-116166900D03*
X135077200Y-119532400D03*
X129489200Y-123596400D03*
X127838200Y-135089900D03*
X127012700Y-127469900D03*
X83324700Y-117182900D03*
X86499700Y-122834400D03*
X79324200Y-122707400D03*
X80848200Y-127215900D03*
X89039700Y-127215900D03*
X71259700Y-135343900D03*
X65671700Y-130644900D03*
X63068200Y-105371900D03*
X64147700Y-84797900D03*
X69291200Y-96926400D03*
X87896700Y-108292900D03*
X111772700Y-106514900D03*
X108280200Y-95783400D03*
X127965200Y-119405400D03*
X143522700Y-134454900D03*
X55003700Y-80924400D03*
X122694700Y-123532900D03*
X120599200Y-115531900D03*
X106311700Y-107149900D03*
X109042200Y-104609900D03*
X133870700Y-100164900D03*
X115201700Y-91528900D03*
%TO.N,+BATT*%
X104216200Y-93891100D03*
X108394500Y-87604600D03*
X86372700Y-103911400D03*
X75336400Y-131114800D03*
%TO.N,+VDD_SERVO*%
X138447085Y-105261985D03*
X116398040Y-128188720D03*
%TO.N,+5V*%
X75692000Y-85521800D03*
X85051900Y-130721100D03*
X75184000Y-124091700D03*
X76098400Y-124079000D03*
X77012800Y-124066300D03*
X76987400Y-123202700D03*
X75158600Y-123228100D03*
X76073000Y-123215400D03*
X68453000Y-104521000D03*
X53073300Y-132600700D03*
%TO.N,3V3_SYS*%
X80759300Y-87058500D03*
X117500399Y-79844901D03*
%TO.N,USB2-*%
X113739846Y-85542562D03*
X137827849Y-98077721D03*
%TO.N,USB2+*%
X113247673Y-86721805D03*
X137662326Y-99252751D03*
%TO.N,PORT_VBUS_2*%
X112217200Y-81483200D03*
X141798240Y-96894375D03*
%TO.N,USB3-*%
X111391700Y-85801200D03*
X137627360Y-107741720D03*
%TO.N,USB3+*%
X110964548Y-86451214D03*
X137302240Y-108452920D03*
%TO.N,PORT_VBUS_3*%
X110629700Y-81407000D03*
X141798240Y-106029690D03*
%TO.N,USB4-*%
X109346858Y-85491485D03*
X139856278Y-116600960D03*
%TO.N,USB4+*%
X139856278Y-117408670D03*
X108828756Y-86085854D03*
%TO.N,PORT_VBUS_4*%
X140182600Y-115125500D03*
X108846325Y-81465125D03*
%TO.N,USB5-*%
X107416600Y-85623400D03*
X139471400Y-125948160D03*
X106717290Y-94201401D03*
%TO.N,USB5+*%
X106667299Y-85832063D03*
X139471400Y-126832640D03*
X105869460Y-94030800D03*
%TO.N,PORT_VBUS_5*%
X139598400Y-124256800D03*
X109181900Y-80556100D03*
X122034300Y-80683100D03*
X122022166Y-86105898D03*
%TO.N,ETH_RADIO_TX_N*%
X102335801Y-81514220D03*
X122455940Y-103014780D03*
%TO.N,ETH_RADIO_TX_P*%
X101762681Y-81001322D03*
X121208800Y-103479600D03*
%TO.N,ETH_RADIO_RX_N*%
X100850700Y-80860900D03*
X112731920Y-104299120D03*
%TO.N,ETH_RADIO_RX_P*%
X100109878Y-80729344D03*
X113670484Y-104274216D03*
%TO.N,ETH_SPARE_RX_P*%
X99767855Y-81528576D03*
X127464830Y-87396310D03*
%TO.N,ETH_SPARE_RX_N*%
X99160706Y-81084172D03*
X127429765Y-88671400D03*
%TO.N,ETH_SPARE_TX_P*%
X98494149Y-81433207D03*
X127464810Y-95016330D03*
%TO.N,ETH_SPARE_TX_N*%
X97775407Y-81655767D03*
X127464813Y-96286327D03*
%TO.N,XAVIER_CONSOLE_TX_OUT*%
X97612200Y-88315800D03*
X58547000Y-104432100D03*
%TO.N,XAVIER_CONSOLE_RX_IN*%
X58508900Y-105625900D03*
X97574100Y-89458800D03*
%TO.N,FMU_I2C_1_SDA*%
X103746300Y-124129800D03*
X59324242Y-122174000D03*
%TO.N,FMU_I2C_1_SCL*%
X102990943Y-123611586D03*
X58518921Y-120522869D03*
%TO.N,GPS1_RX*%
X102359445Y-123202521D03*
X58860348Y-119852383D03*
%TO.N,GPS1_TX*%
X58877200Y-118795800D03*
X102171310Y-122474010D03*
%TO.N,+VDD_5V_PERIPH*%
X144246600Y-103352288D03*
X144180128Y-99641634D03*
X98272600Y-127520700D03*
X101750008Y-127336657D03*
X55511700Y-128701800D03*
X97637600Y-134967668D03*
X58740040Y-117495320D03*
X112127789Y-134558761D03*
X110073440Y-135097520D03*
X106299000Y-135082280D03*
X107604551Y-135117831D03*
X140221660Y-129980380D03*
X60126880Y-128671320D03*
X59496960Y-115935760D03*
%TO.N,BATT_VOLTAGE_SENS_PROT*%
X115627082Y-130095237D03*
X58269562Y-101210800D03*
%TO.N,BATT_CURRENT_SENS_PROT*%
X115087400Y-130619500D03*
X58242200Y-102382320D03*
%TO.N,FMU-CH1-PROT*%
X143484600Y-92240100D03*
X102526010Y-130871221D03*
%TO.N,IO-CH8-PROT*%
X144373600Y-90627200D03*
X102039609Y-130297168D03*
%TO.N,IO-CH7-PROT*%
X144373600Y-87668100D03*
X101388155Y-130673640D03*
%TO.N,IO-CH6-PROT*%
X138275161Y-102645571D03*
X100716370Y-131012503D03*
%TO.N,IO-CH5-PROT*%
X100519283Y-129909783D03*
X137617200Y-100700840D03*
%TO.N,IO-CH4-PROT*%
X138363195Y-96967805D03*
X99776570Y-130030207D03*
%TO.N,IO-CH3-PROT*%
X141401842Y-93675227D03*
X99544316Y-129257257D03*
%TO.N,IO-CH2-PROT*%
X98796130Y-129177622D03*
X137748135Y-90544864D03*
%TO.N,IO-CH1-PROT*%
X98209100Y-128422400D03*
X139823041Y-86846559D03*
%TO.N,ETH_RADIO_TX_POSTMAG_N*%
X117936501Y-85499521D03*
X122455936Y-94569284D03*
%TO.N,ETH_RADIO_TX_POSTMAG_P*%
X116285922Y-85888732D03*
X121158505Y-94596715D03*
%TO.N,ETH_RADIO_RX_POSTMAG_N*%
X114835940Y-94569280D03*
X114854010Y-87768988D03*
%TO.N,ETH_RADIO_RX_POSTMAG_P*%
X113565940Y-94569280D03*
X113896645Y-87334855D03*
%TO.N,ETH_SPARE_TX_POSTMAG_N*%
X137493245Y-96097855D03*
%TO.N,ETH_SPARE_TX_POSTMAG_P*%
X136857296Y-95461907D03*
%TO.N,ETH_SPARE_RX_POSTMAG_N*%
X137680700Y-88480900D03*
%TO.N,ETH_SPARE_RX_POSTMAG_P*%
X137655300Y-87617300D03*
%TO.N,Net-(C20-Pad1)*%
X98717100Y-103936800D03*
X93636840Y-102044400D03*
%TO.N,Net-(D4-Pad1)*%
X53924200Y-135483600D03*
%TO.N,Net-(C21-Pad1)*%
X77978000Y-105537000D03*
X72752960Y-103794460D03*
%TO.N,+5V_FMU*%
X109499400Y-124129800D03*
X89090500Y-102730300D03*
X91236800Y-117919500D03*
X57124600Y-132181600D03*
X97726500Y-115112800D03*
X114554000Y-120197546D03*
X98557080Y-115097560D03*
X89103200Y-129692400D03*
%TO.N,Net-(D5-Pad1)*%
X56553100Y-135445500D03*
%TO.N,IRID_ON_OFF_3.3*%
X77050900Y-85255100D03*
X112217200Y-91605100D03*
%TO.N,IRID_TX_IN_3.3*%
X78155800Y-85305900D03*
X111772710Y-90930419D03*
%TO.N,IRID_RING_3.3*%
X79425800Y-82245200D03*
X110944111Y-91478100D03*
%TO.N,IRID_NA_3.3*%
X80657700Y-82270600D03*
X110326413Y-91907702D03*
%TO.N,IRID_RX_OUT_3.3*%
X109590480Y-92064262D03*
X84442300Y-81876900D03*
%TO.N,CAM1_D2_N*%
X109409465Y-90959095D03*
X85420200Y-86004400D03*
%TO.N,CAM1_D2_P*%
X108877100Y-91490800D03*
X85151489Y-86707183D03*
%TO.N,CAM1_D3_N*%
X84010500Y-85445600D03*
X107899200Y-91643200D03*
%TO.N,CAM1_D3_P*%
X107087969Y-92349610D03*
X83096100Y-85344000D03*
%TO.N,CAM1_D0_N*%
X89877900Y-85178900D03*
X105933786Y-85573315D03*
%TO.N,CAM1_D0_P*%
X105498900Y-86194900D03*
X89001600Y-85140800D03*
%TO.N,CAM1_C_N*%
X104731809Y-86399379D03*
X86575900Y-84950300D03*
%TO.N,CAM1_C_P*%
X104216200Y-86956900D03*
X85902932Y-85286784D03*
%TO.N,CAM1_D1_N*%
X103190900Y-87314458D03*
X88074965Y-85065452D03*
%TO.N,CAM1_D1_P*%
X102730300Y-87909400D03*
X87515700Y-85568772D03*
%TO.N,CAM_GPIO*%
X99961700Y-91211400D03*
X82448400Y-85966300D03*
%TO.N,CAM_SCL0*%
X100038766Y-87667234D03*
X81051400Y-85661500D03*
%TO.N,CAM_SDA0*%
X99289523Y-87736219D03*
X80086200Y-85496400D03*
%TO.N,RC_INPUT*%
X107873800Y-123510040D03*
X58491120Y-109407960D03*
%TO.N,+VDD_5V_RADIO*%
X107177840Y-122682000D03*
X58301380Y-110599980D03*
%TO.N,BUZZER_OUT*%
X106407958Y-124035555D03*
X58643481Y-127110191D03*
%TO.N,SAFETY_VDD*%
X105882440Y-123240800D03*
X58390511Y-126052980D03*
%TO.N,~SAFETY_SWITCH_LED_OUT*%
X105151715Y-123620506D03*
X61165740Y-124929900D03*
%TO.N,SAFETY_SWITCH_IN*%
X104632470Y-124203724D03*
X58372688Y-123714160D03*
%TO.N,SPI5_CS2_EXTERNAL1*%
X100882020Y-120606906D03*
X138816080Y-123550680D03*
%TO.N,SPI5_CS1_EXTERNAL1*%
X100355398Y-121729500D03*
X138821160Y-124419360D03*
%TO.N,SPI5_MOSI_EXTERNAL1*%
X99834700Y-122720100D03*
X137271844Y-125252396D03*
%TO.N,SPI5_MISO_EXTERNAL1*%
X99468339Y-123867183D03*
X137825480Y-127452120D03*
%TO.N,SPI5_SCK_EXTERNAL1*%
X137998200Y-128587500D03*
X98765049Y-124134590D03*
%TO.N,TELEM1_TX*%
X55511700Y-127431800D03*
X114385281Y-135702275D03*
%TO.N,TELEM1_RX*%
X55486300Y-126212600D03*
X113671026Y-135465711D03*
%TO.N,TELEM1_CTS*%
X55422800Y-124955300D03*
X112932693Y-135320835D03*
%TO.N,TELEM1_RTS*%
X55384700Y-123710700D03*
X112148676Y-135357284D03*
%TO.N,CAN_L_1-*%
X144208500Y-101193600D03*
X111381030Y-134466700D03*
%TO.N,CAN_H_1+*%
X144208500Y-100393500D03*
X110724418Y-134099300D03*
%TO.N,CAN_L_2-*%
X58643520Y-113477040D03*
X72303104Y-131690375D03*
X109353649Y-134008460D03*
%TO.N,CAN_H_2+*%
X58577480Y-114614960D03*
X109047280Y-134777480D03*
X71552148Y-131880385D03*
%TO.N,FMU_I2C_2_SDA*%
X144297400Y-106006900D03*
X107610456Y-134289770D03*
%TO.N,FMU_I2C_2_SCL*%
X144200676Y-105260742D03*
X106858090Y-134298105D03*
%TO.N,FMU-CH6-PROT*%
X138775440Y-113284000D03*
X104734650Y-133684532D03*
%TO.N,FMU-CH5-PROT*%
X138744960Y-114518440D03*
X104140290Y-134213688D03*
%TO.N,FMU-CH4-PROT*%
X103548204Y-134683445D03*
X138315700Y-115214400D03*
%TO.N,FMU-CH3-PROT*%
X102808149Y-134547695D03*
X137754360Y-118150640D03*
%TO.N,FMU-CH2-PROT*%
X144043400Y-97015300D03*
X103270711Y-130978665D03*
%TD*%
D18*
%TO.N,+BATT*%
X108394500Y-87604600D02*
X108394500Y-89712800D01*
X108394500Y-89712800D02*
X104216200Y-93891100D01*
D19*
%TO.N,ETH_RADIO_TX_N*%
X102296081Y-88257511D02*
X102296081Y-93511509D01*
X102296081Y-93511509D02*
X111718072Y-102933500D01*
X102201699Y-88163129D02*
X102296081Y-88257511D01*
X122374660Y-102933500D02*
X122455940Y-103014780D01*
X102201699Y-87655671D02*
X102201699Y-88163129D01*
X111718072Y-102933500D02*
X122374660Y-102933500D01*
X102296081Y-87561289D02*
X102201699Y-87655671D01*
X102296081Y-81553940D02*
X102296081Y-87561289D01*
X102335801Y-81514220D02*
X102296081Y-81553940D01*
%TO.N,ETH_RADIO_TX_P*%
X101762681Y-93732453D02*
X111433628Y-103403400D01*
X101762681Y-88478439D02*
X101762681Y-93732453D01*
X101668309Y-88384067D02*
X101762681Y-88478439D01*
X121132600Y-103403400D02*
X121208800Y-103479600D01*
X101668308Y-87434734D02*
X101668309Y-88384067D01*
X111433628Y-103403400D02*
X121132600Y-103403400D01*
X101762681Y-87340361D02*
X101668308Y-87434734D01*
X101762681Y-81001322D02*
X101762681Y-87340361D01*
%TO.N,ETH_RADIO_RX_N*%
X100850700Y-80860900D02*
X101264999Y-81275199D01*
X110937392Y-104299120D02*
X112731920Y-104299120D01*
X101264999Y-81275199D02*
X101264999Y-94626727D01*
X101264999Y-94626727D02*
X110937392Y-104299120D01*
%TO.N,ETH_RADIO_RX_P*%
X100109878Y-80729344D02*
X100109878Y-81118751D01*
X100109878Y-81118751D02*
X100698300Y-81707173D01*
X100698300Y-81707173D02*
X100698300Y-94814382D01*
X113441564Y-104927400D02*
X113670484Y-104698480D01*
X100698300Y-94814382D02*
X110811318Y-104927400D01*
X113670484Y-104698480D02*
X113670484Y-104274216D01*
X110811318Y-104927400D02*
X113441564Y-104927400D01*
%TO.N,ETH_RADIO_TX_POSTMAG_N*%
X117936501Y-85499521D02*
X117936501Y-89191345D01*
X117936501Y-89191345D02*
X122455936Y-93710780D01*
X122455936Y-93710780D02*
X122455936Y-94569284D01*
%TO.N,ETH_RADIO_TX_POSTMAG_P*%
X116865400Y-86468210D02*
X116285922Y-85888732D01*
X116865400Y-88874600D02*
X116865400Y-86468210D01*
X121158505Y-93167705D02*
X116865400Y-88874600D01*
X121158505Y-94596715D02*
X121158505Y-93167705D01*
%TO.N,ETH_RADIO_RX_POSTMAG_N*%
X114835940Y-94569280D02*
X114442240Y-94175580D01*
X114442240Y-94175580D02*
X114442240Y-88180758D01*
X114442240Y-88180758D02*
X114854010Y-87768988D01*
%TO.N,ETH_RADIO_RX_POSTMAG_P*%
X113565940Y-94569280D02*
X113873280Y-94261940D01*
X113873280Y-94261940D02*
X113873280Y-87358220D01*
X113873280Y-87358220D02*
X113896645Y-87334855D01*
%TO.N,CAM_GPIO*%
X87693500Y-91211400D02*
X82448400Y-85966300D01*
X99961700Y-91211400D02*
X87693500Y-91211400D01*
%TO.N,RC_INPUT*%
X62214760Y-113131600D02*
X58491120Y-109407960D01*
X98384360Y-113131600D02*
X62214760Y-113131600D01*
X107873800Y-122621040D02*
X98384360Y-113131600D01*
X107873800Y-123510040D02*
X107873800Y-122621040D01*
D20*
%TO.N,+VDD_5V_RADIO*%
X58936380Y-110599980D02*
X58301380Y-110599980D01*
X61849011Y-113512611D02*
X58936380Y-110599980D01*
X98008451Y-113512611D02*
X61849011Y-113512611D01*
X107177840Y-122682000D02*
X98008451Y-113512611D01*
D19*
%TO.N,BUZZER_OUT*%
X106407958Y-124035555D02*
X106407958Y-124459819D01*
X61667689Y-127110191D02*
X58643481Y-127110191D01*
X106407958Y-124459819D02*
X105269857Y-125597920D01*
X105269857Y-125597920D02*
X63179960Y-125597920D01*
X63179960Y-125597920D02*
X61667689Y-127110191D01*
%TO.N,SAFETY_VDD*%
X62130540Y-126052980D02*
X58390511Y-126052980D01*
X105882440Y-123240800D02*
X105879356Y-123243884D01*
X105105200Y-125293120D02*
X62890400Y-125293120D01*
X105879356Y-123243884D02*
X105879356Y-124518964D01*
X62890400Y-125293120D02*
X62130540Y-126052980D01*
X105879356Y-124518964D02*
X105105200Y-125293120D01*
%TO.N,~SAFETY_SWITCH_LED_OUT*%
X105451714Y-123920505D02*
X105451714Y-124398006D01*
X105151715Y-123620506D02*
X105451714Y-123920505D01*
X105451714Y-124398006D02*
X104876640Y-124973080D01*
X104876640Y-124973080D02*
X61208920Y-124973080D01*
X61208920Y-124973080D02*
X61165740Y-124929900D01*
%TO.N,SAFETY_SWITCH_IN*%
X62946280Y-124663200D02*
X61997239Y-123714159D01*
X58796952Y-123714160D02*
X58372688Y-123714160D01*
X61997239Y-123714159D02*
X58796952Y-123714160D01*
X104172994Y-124663200D02*
X62946280Y-124663200D01*
X104632470Y-124203724D02*
X104172994Y-124663200D01*
%TO.N,CAN_L_1-*%
X143522700Y-115862100D02*
X125385816Y-133998984D01*
X125385816Y-133998984D02*
X111848746Y-133998984D01*
X111848746Y-133998984D02*
X111381030Y-134466700D01*
X143522700Y-101879400D02*
X143522700Y-115862100D01*
X144208500Y-101193600D02*
X143522700Y-101879400D01*
%TO.N,CAN_H_1+*%
X111157016Y-133666702D02*
X110724418Y-134099300D01*
X143205200Y-101396800D02*
X143205200Y-115735834D01*
X143205200Y-115735834D02*
X125274332Y-133666702D01*
X144208500Y-100393500D02*
X143205200Y-101396800D01*
X125274332Y-133666702D02*
X111157016Y-133666702D01*
%TO.N,FMU-CH6-PROT*%
X105024668Y-133684532D02*
X104734650Y-133684532D01*
X123576080Y-115133120D02*
X105024668Y-133684532D01*
X136926320Y-115133120D02*
X123576080Y-115133120D01*
X138775440Y-113284000D02*
X136926320Y-115133120D01*
%TO.N,FMU-CH5-PROT*%
X104977378Y-134213688D02*
X104140290Y-134213688D01*
X137271760Y-115448080D02*
X123742986Y-115448080D01*
X123742986Y-115448080D02*
X104977378Y-134213688D01*
X138201400Y-114518440D02*
X137271760Y-115448080D01*
X138744960Y-114518440D02*
X138201400Y-114518440D01*
%TO.N,FMU-CH4-PROT*%
X137761701Y-115768399D02*
X138315700Y-115214400D01*
X123853734Y-115768399D02*
X137761701Y-115768399D01*
X103607048Y-134742289D02*
X104879844Y-134742289D01*
X103548204Y-134683445D02*
X103607048Y-134742289D01*
X104879844Y-134742289D02*
X123853734Y-115768399D01*
%TO.N,FMU-CH3-PROT*%
X102808149Y-134547695D02*
X102808149Y-134971959D01*
X102808149Y-134971959D02*
X103048236Y-135212046D01*
X103048236Y-135212046D02*
X104858594Y-135212046D01*
X104858594Y-135212046D02*
X121920000Y-118150640D01*
X121920000Y-118150640D02*
X137754360Y-118150640D01*
%TD*%
M02*
