%TF.GenerationSoftware,KiCad,Pcbnew,(5.1.8)-1*%
%TF.CreationDate,2021-06-12T11:00:54-04:00*%
%TF.ProjectId,pixc4-jetson-universal-carrier,70697863-342d-46a6-9574-736f6e2d756e,rev?*%
%TF.SameCoordinates,Original*%
%TF.FileFunction,Legend,Bot*%
%TF.FilePolarity,Positive*%
%FSLAX46Y46*%
G04 Gerber Fmt 4.6, Leading zero omitted, Abs format (unit mm)*
G04 Created by KiCad (PCBNEW (5.1.8)-1) date 2021-06-12 11:00:54*
%MOMM*%
%LPD*%
G01*
G04 APERTURE LIST*
%ADD10C,0.152400*%
%ADD11C,0.127000*%
%ADD12C,0.120000*%
%ADD13C,0.250000*%
%ADD14C,0.150000*%
G04 APERTURE END LIST*
D10*
X122803917Y-107912205D02*
X122803916Y-108108925D01*
X122803916Y-108108925D02*
X122803916Y-108305677D01*
X122803916Y-108305677D02*
X122803915Y-108502458D01*
X122803915Y-108502458D02*
X122803915Y-108699267D01*
X122803915Y-108699267D02*
X122803914Y-108896101D01*
X122803914Y-108896101D02*
X122803914Y-109092957D01*
X122803914Y-109092957D02*
X122803913Y-109289835D01*
X122803913Y-109289835D02*
X122803913Y-109486731D01*
X122803913Y-109486731D02*
X122803913Y-109683644D01*
X122803913Y-109683644D02*
X122803912Y-109880572D01*
X122803912Y-109880572D02*
X122803912Y-110077512D01*
X122803912Y-110077512D02*
X122803912Y-110274463D01*
X122803912Y-110274463D02*
X122803911Y-110471421D01*
X122803911Y-110471421D02*
X122803911Y-110668386D01*
X122803911Y-110668386D02*
X122803911Y-110865355D01*
X122803911Y-110865355D02*
X122803910Y-111062326D01*
X122803910Y-111062326D02*
X122803910Y-111259297D01*
X122803910Y-111259297D02*
X122803910Y-111456266D01*
X122803910Y-111456266D02*
X122803909Y-111653230D01*
X122803909Y-111653230D02*
X122803909Y-111850188D01*
X122803909Y-111850188D02*
X122803909Y-112047137D01*
X122803909Y-112047137D02*
X122803909Y-112244076D01*
X122803909Y-112244076D02*
X122803909Y-112441002D01*
X122803909Y-112441002D02*
X122803909Y-112637913D01*
X122803909Y-112637913D02*
X122803909Y-112834807D01*
X122803909Y-112834807D02*
X122803908Y-113031682D01*
X122803908Y-113031682D02*
X122803908Y-113228536D01*
X122803908Y-113228536D02*
X122803908Y-113425367D01*
X122803908Y-113425367D02*
X122803908Y-113622172D01*
X122803908Y-113622172D02*
X122803908Y-113818950D01*
X122803908Y-113818950D02*
X122803908Y-114015698D01*
X122803908Y-114015698D02*
X122803909Y-114212415D01*
X125329465Y-111813931D02*
X125223688Y-111934307D01*
X125223688Y-111934307D02*
X125135820Y-112070773D01*
X125135820Y-112070773D02*
X125091201Y-112216640D01*
X125091201Y-112216640D02*
X125125672Y-112386273D01*
X125125672Y-112386273D02*
X125169416Y-112448760D01*
X126217231Y-108876404D02*
X126098959Y-108979919D01*
X126098959Y-108979919D02*
X126082832Y-108994070D01*
X121721710Y-108461191D02*
X121575022Y-108571829D01*
X121575022Y-108571829D02*
X121437471Y-108690764D01*
X121437471Y-108690764D02*
X121309048Y-108817474D01*
X121309048Y-108817474D02*
X121189748Y-108951435D01*
X121189748Y-108951435D02*
X121079564Y-109092126D01*
X121079564Y-109092126D02*
X120978488Y-109239024D01*
X120978488Y-109239024D02*
X120886516Y-109391606D01*
X120886516Y-109391606D02*
X120803640Y-109549351D01*
X120803640Y-109549351D02*
X120729853Y-109711734D01*
X120729853Y-109711734D02*
X120665149Y-109878235D01*
X120665149Y-109878235D02*
X120609521Y-110048330D01*
X120609521Y-110048330D02*
X120562963Y-110221497D01*
X120562963Y-110221497D02*
X120525468Y-110397214D01*
X120525468Y-110397214D02*
X120497030Y-110574957D01*
X120497030Y-110574957D02*
X120477641Y-110754205D01*
X120477641Y-110754205D02*
X120467296Y-110934435D01*
X120467296Y-110934435D02*
X120465988Y-111115125D01*
X120465988Y-111115125D02*
X120473710Y-111295751D01*
X120473710Y-111295751D02*
X120490456Y-111475792D01*
X120490456Y-111475792D02*
X120516218Y-111654724D01*
X120516218Y-111654724D02*
X120550991Y-111832027D01*
X120550991Y-111832027D02*
X120594768Y-112007176D01*
X120594768Y-112007176D02*
X120647542Y-112179649D01*
X120647542Y-112179649D02*
X120709307Y-112348925D01*
X120709307Y-112348925D02*
X120780056Y-112514480D01*
X120780056Y-112514480D02*
X120859783Y-112675792D01*
X120859783Y-112675792D02*
X120948480Y-112832338D01*
X120948480Y-112832338D02*
X121046141Y-112983596D01*
X121046141Y-112983596D02*
X121152761Y-113129044D01*
X121152761Y-113129044D02*
X121268331Y-113268159D01*
X121268331Y-113268159D02*
X121392846Y-113400418D01*
X121392846Y-113400418D02*
X121526300Y-113525300D01*
X125656241Y-110701843D02*
X125767349Y-110811468D01*
X125767349Y-110811468D02*
X125854653Y-110938386D01*
X121795748Y-113581633D02*
X121795747Y-113375331D01*
X121795747Y-113375331D02*
X121795747Y-113168886D01*
X121795747Y-113168886D02*
X121795747Y-112962317D01*
X121795747Y-112962317D02*
X121795747Y-112755645D01*
X121795747Y-112755645D02*
X121795747Y-112548891D01*
X121795747Y-112548891D02*
X121795748Y-112342075D01*
X121795748Y-112342075D02*
X121795748Y-112135218D01*
X121795748Y-112135218D02*
X121795748Y-111928340D01*
X121795748Y-111928340D02*
X121795748Y-111721463D01*
X121795748Y-111721463D02*
X121795748Y-111514606D01*
X121795748Y-111514606D02*
X121795748Y-111307790D01*
X121795748Y-111307790D02*
X121795748Y-111101036D01*
X121795748Y-111101036D02*
X121795748Y-110894364D01*
X121795748Y-110894364D02*
X121795748Y-110687795D01*
X121795748Y-110687795D02*
X121795748Y-110481350D01*
X121795748Y-110481350D02*
X121795748Y-110275050D01*
X125175698Y-109788061D02*
X125102596Y-109925584D01*
X125102596Y-109925584D02*
X125112132Y-110082583D01*
X125112132Y-110082583D02*
X125192417Y-110230331D01*
X125192417Y-110230331D02*
X125292576Y-110345199D01*
X125292576Y-110345199D02*
X125399774Y-110445335D01*
X126592407Y-109145130D02*
X126493770Y-109007203D01*
X126493770Y-109007203D02*
X126392313Y-108876453D01*
X126392313Y-108876453D02*
X126232097Y-108862981D01*
X126232097Y-108862981D02*
X126217231Y-108876404D01*
X126131781Y-113284853D02*
X126269581Y-113357643D01*
X126082832Y-108994070D02*
X125941200Y-109118037D01*
X125941200Y-109118037D02*
X125799448Y-109242109D01*
X125799448Y-109242109D02*
X125657631Y-109366237D01*
X125657631Y-109366237D02*
X125515803Y-109490375D01*
X125515803Y-109490375D02*
X125374019Y-109614474D01*
X125374019Y-109614474D02*
X125232332Y-109738489D01*
X125232332Y-109738489D02*
X125175698Y-109788061D01*
X125645360Y-111434842D02*
X125546743Y-111553192D01*
X125546743Y-111553192D02*
X125447858Y-111671858D01*
X125447858Y-111671858D02*
X125349147Y-111790312D01*
X125349147Y-111790312D02*
X125329465Y-111813931D01*
X126269581Y-113357643D02*
X126464750Y-113146805D01*
X126464750Y-113146805D02*
X126636656Y-112918949D01*
X126636656Y-112918949D02*
X126785284Y-112676225D01*
X126785284Y-112676225D02*
X126910619Y-112420779D01*
X126910619Y-112420779D02*
X127012647Y-112154760D01*
X127012647Y-112154760D02*
X127091352Y-111880317D01*
X127091352Y-111880317D02*
X127146720Y-111599597D01*
X127146720Y-111599597D02*
X127178736Y-111314749D01*
X127178736Y-111314749D02*
X127187385Y-111027921D01*
X127187385Y-111027921D02*
X127172653Y-110741261D01*
X127172653Y-110741261D02*
X127134523Y-110456917D01*
X127134523Y-110456917D02*
X127072982Y-110177038D01*
X127072982Y-110177038D02*
X126988015Y-109903771D01*
X126988015Y-109903771D02*
X126879606Y-109639265D01*
X126879606Y-109639265D02*
X126747742Y-109385669D01*
X126747742Y-109385669D02*
X126592407Y-109145130D01*
X121795748Y-109015400D02*
X121794583Y-108859928D01*
X121794583Y-108859928D02*
X121802847Y-108700525D01*
X121802847Y-108700525D02*
X121790285Y-108538618D01*
X121790285Y-108538618D02*
X121721710Y-108461191D01*
X121795748Y-110275050D02*
X121795745Y-110119128D01*
X121795745Y-110119128D02*
X121795744Y-109961892D01*
X121795744Y-109961892D02*
X121795745Y-109803779D01*
X121795745Y-109803779D02*
X121795746Y-109645227D01*
X121795746Y-109645227D02*
X121795748Y-109486674D01*
X121795748Y-109486674D02*
X121795749Y-109328560D01*
X121795749Y-109328560D02*
X121795749Y-109171323D01*
X121795749Y-109171323D02*
X121795748Y-109015400D01*
X125399774Y-110445335D02*
X125511929Y-110557524D01*
X125511929Y-110557524D02*
X125624283Y-110669885D01*
X125624283Y-110669885D02*
X125656241Y-110701843D01*
X125430655Y-112676114D02*
X125561984Y-112790135D01*
X125561984Y-112790135D02*
X125693496Y-112904318D01*
X125693496Y-112904318D02*
X125825081Y-113018566D01*
X125825081Y-113018566D02*
X125956629Y-113132782D01*
X125956629Y-113132782D02*
X126088031Y-113246869D01*
X126088031Y-113246869D02*
X126131781Y-113284853D01*
X125169416Y-112448760D02*
X125291593Y-112555500D01*
X125291593Y-112555500D02*
X125414532Y-112662047D01*
X125414532Y-112662047D02*
X125430655Y-112676114D01*
X125854653Y-110938386D02*
X125870825Y-111097591D01*
X125870825Y-111097591D02*
X125805643Y-111239332D01*
X125805643Y-111239332D02*
X125702751Y-111367742D01*
X125702751Y-111367742D02*
X125645360Y-111434842D01*
X125548664Y-108257213D02*
X125438171Y-108115867D01*
X125438171Y-108115867D02*
X125245368Y-107991990D01*
X125245368Y-107991990D02*
X125079981Y-107919980D01*
X125079981Y-107919980D02*
X124891327Y-107857036D01*
X124891327Y-107857036D02*
X124684734Y-107803681D01*
X124684734Y-107803681D02*
X124465526Y-107760435D01*
X124465526Y-107760435D02*
X124239032Y-107727821D01*
X124239032Y-107727821D02*
X124010576Y-107706360D01*
X124010576Y-107706360D02*
X123785487Y-107696573D01*
X123785487Y-107696573D02*
X123569090Y-107698982D01*
X123569090Y-107698982D02*
X123366712Y-107714107D01*
X123366712Y-107714107D02*
X123183679Y-107742470D01*
X123183679Y-107742470D02*
X123025317Y-107784594D01*
X123025317Y-107784594D02*
X122845687Y-107874718D01*
X122845687Y-107874718D02*
X122803917Y-107912205D01*
X123973936Y-109764702D02*
X124119519Y-109624889D01*
X124119519Y-109624889D02*
X124265573Y-109485266D01*
X124265573Y-109485266D02*
X124411964Y-109345790D01*
X124411964Y-109345790D02*
X124558561Y-109206421D01*
X124558561Y-109206421D02*
X124705228Y-109067116D01*
X124705228Y-109067116D02*
X124851834Y-108927837D01*
X124851834Y-108927837D02*
X124998245Y-108788540D01*
X124998245Y-108788540D02*
X125144329Y-108649187D01*
X125144329Y-108649187D02*
X125258265Y-108539988D01*
X125258265Y-108539988D02*
X125375270Y-108431246D01*
X125375270Y-108431246D02*
X125489098Y-108320504D01*
X125489098Y-108320504D02*
X125548664Y-108257213D01*
X124128419Y-111819415D02*
X124234039Y-111692650D01*
X124234039Y-111692650D02*
X124339918Y-111565590D01*
X124339918Y-111565590D02*
X124445635Y-111438728D01*
X124445635Y-111438728D02*
X124466723Y-111413424D01*
X124130466Y-112600372D02*
X124004553Y-112477767D01*
X124004553Y-112477767D02*
X123921191Y-112334015D01*
X123921191Y-112334015D02*
X123909842Y-112167304D01*
X123909842Y-112167304D02*
X123966976Y-112021962D01*
X123966976Y-112021962D02*
X124057212Y-111896910D01*
X124057212Y-111896910D02*
X124128419Y-111819415D01*
X125309420Y-113759800D02*
X125190691Y-113643023D01*
X125190691Y-113643023D02*
X125071555Y-113525856D01*
X125071555Y-113525856D02*
X124952254Y-113408533D01*
X124952254Y-113408533D02*
X124833032Y-113291289D01*
X124833032Y-113291289D02*
X124714131Y-113174359D01*
X124714131Y-113174359D02*
X124674611Y-113135493D01*
X125245195Y-114116051D02*
X125384158Y-114049555D01*
X125384158Y-114049555D02*
X125451015Y-113907512D01*
X125451015Y-113907512D02*
X125330584Y-113777920D01*
X125330584Y-113777920D02*
X125309420Y-113759800D01*
X124205764Y-110447865D02*
X124077568Y-110326131D01*
X124077568Y-110326131D02*
X123983060Y-110205445D01*
X123983060Y-110205445D02*
X123914268Y-110050481D01*
X123914268Y-110050481D02*
X123915476Y-109885546D01*
X123915476Y-109885546D02*
X123973936Y-109764702D01*
X124674611Y-113135493D02*
X124555923Y-113018767D01*
X124555923Y-113018767D02*
X124436656Y-112901482D01*
X124436656Y-112901482D02*
X124317262Y-112784072D01*
X124317262Y-112784072D02*
X124198190Y-112666976D01*
X124198190Y-112666976D02*
X124130466Y-112600372D01*
X124466723Y-111413424D02*
X124578282Y-111285352D01*
X124578282Y-111285352D02*
X124660902Y-111151524D01*
X124660902Y-111151524D02*
X124685716Y-110994321D01*
X124685716Y-110994321D02*
X124616620Y-110855489D01*
X124616620Y-110855489D02*
X124554073Y-110796195D01*
X122803909Y-114212415D02*
X123002697Y-114311495D01*
X123002697Y-114311495D02*
X123217797Y-114381322D01*
X123217797Y-114381322D02*
X123368534Y-114412798D01*
X123368534Y-114412798D02*
X123523934Y-114433037D01*
X123523934Y-114433037D02*
X123682962Y-114442746D01*
X123682962Y-114442746D02*
X123844584Y-114442631D01*
X123844584Y-114442631D02*
X124007765Y-114433398D01*
X124007765Y-114433398D02*
X124171470Y-114415754D01*
X124171470Y-114415754D02*
X124334666Y-114390405D01*
X124334666Y-114390405D02*
X124496317Y-114358057D01*
X124496317Y-114358057D02*
X124655389Y-114319416D01*
X124655389Y-114319416D02*
X124810847Y-114275189D01*
X124810847Y-114275189D02*
X124961657Y-114226081D01*
X124961657Y-114226081D02*
X125106785Y-114172800D01*
X125106785Y-114172800D02*
X125245195Y-114116051D01*
X124554073Y-110796195D02*
X124445310Y-110687419D01*
X124445310Y-110687419D02*
X124336333Y-110578434D01*
X124336333Y-110578434D02*
X124227487Y-110469587D01*
X124227487Y-110469587D02*
X124205764Y-110447865D01*
X121526300Y-113525300D02*
X121642281Y-113628233D01*
X121642281Y-113628233D02*
X121791988Y-113597377D01*
X121791988Y-113597377D02*
X121795748Y-113581633D01*
D11*
X140565777Y-91154794D02*
X140130348Y-91154794D01*
X140348062Y-91916794D02*
X140348062Y-91154794D01*
X139948920Y-91916794D02*
X139549777Y-91408794D01*
X139948920Y-91408794D02*
X139549777Y-91916794D01*
X139259491Y-91626508D02*
X138678920Y-91626508D01*
X140565777Y-89874634D02*
X140130348Y-89874634D01*
X140348062Y-90636634D02*
X140348062Y-89874634D01*
X139948920Y-90636634D02*
X139549777Y-90128634D01*
X139948920Y-90128634D02*
X139549777Y-90636634D01*
X139259491Y-90346348D02*
X138678920Y-90346348D01*
X138969205Y-90636634D02*
X138969205Y-90056062D01*
X140021491Y-89381874D02*
X140275491Y-89019017D01*
X140456920Y-89381874D02*
X140456920Y-88619874D01*
X140166634Y-88619874D01*
X140094063Y-88656160D01*
X140057777Y-88692445D01*
X140021491Y-88765017D01*
X140021491Y-88873874D01*
X140057777Y-88946445D01*
X140094063Y-88982731D01*
X140166634Y-89019017D01*
X140456920Y-89019017D01*
X139767491Y-89381874D02*
X139368348Y-88873874D01*
X139767491Y-88873874D02*
X139368348Y-89381874D01*
X139078063Y-89091588D02*
X138497491Y-89091588D01*
X140021491Y-88116954D02*
X140275491Y-87754097D01*
X140456920Y-88116954D02*
X140456920Y-87354954D01*
X140166634Y-87354954D01*
X140094063Y-87391240D01*
X140057777Y-87427525D01*
X140021491Y-87500097D01*
X140021491Y-87608954D01*
X140057777Y-87681525D01*
X140094063Y-87717811D01*
X140166634Y-87754097D01*
X140456920Y-87754097D01*
X139767491Y-88116954D02*
X139368348Y-87608954D01*
X139767491Y-87608954D02*
X139368348Y-88116954D01*
X139078063Y-87826668D02*
X138497491Y-87826668D01*
X138787777Y-88116954D02*
X138787777Y-87536382D01*
D10*
X131739640Y-112135920D02*
X130439160Y-112135920D01*
X131759960Y-104581960D02*
X130459480Y-104581960D01*
X131759960Y-112135920D02*
X131759960Y-104581960D01*
X132593080Y-105821480D02*
X132918200Y-105237280D01*
X132232400Y-105237280D02*
X132593080Y-105821480D01*
X132892800Y-105237280D02*
X132232400Y-105237280D01*
D11*
X132524862Y-110622080D02*
X132452291Y-110658365D01*
X132343434Y-110658365D01*
X132234576Y-110622080D01*
X132162005Y-110549508D01*
X132125719Y-110476937D01*
X132089434Y-110331794D01*
X132089434Y-110222937D01*
X132125719Y-110077794D01*
X132162005Y-110005222D01*
X132234576Y-109932651D01*
X132343434Y-109896365D01*
X132416005Y-109896365D01*
X132524862Y-109932651D01*
X132561148Y-109968937D01*
X132561148Y-110222937D01*
X132416005Y-110222937D01*
X132887719Y-109896365D02*
X132887719Y-110658365D01*
X133323148Y-109896365D01*
X133323148Y-110658365D01*
X133686005Y-109896365D02*
X133686005Y-110658365D01*
X133867434Y-110658365D01*
X133976291Y-110622080D01*
X134048862Y-110549508D01*
X134085148Y-110476937D01*
X134121434Y-110331794D01*
X134121434Y-110222937D01*
X134085148Y-110077794D01*
X134048862Y-110005222D01*
X133976291Y-109932651D01*
X133867434Y-109896365D01*
X133686005Y-109896365D01*
X132125719Y-108687325D02*
X132125719Y-109449325D01*
X132307148Y-109449325D01*
X132416005Y-109413040D01*
X132488576Y-109340468D01*
X132524862Y-109267897D01*
X132561148Y-109122754D01*
X132561148Y-109013897D01*
X132524862Y-108868754D01*
X132488576Y-108796182D01*
X132416005Y-108723611D01*
X132307148Y-108687325D01*
X132125719Y-108687325D01*
X132851434Y-108905040D02*
X133214291Y-108905040D01*
X132778862Y-108687325D02*
X133032862Y-109449325D01*
X133286862Y-108687325D01*
X133432005Y-109449325D02*
X133867434Y-109449325D01*
X133649719Y-108687325D02*
X133649719Y-109449325D01*
X134085148Y-108905040D02*
X134448005Y-108905040D01*
X134012576Y-108687325D02*
X134266576Y-109449325D01*
X134520576Y-108687325D01*
X134774576Y-108977611D02*
X135355148Y-108977611D01*
X135064862Y-108687325D02*
X135064862Y-109267897D01*
X132125719Y-107397005D02*
X132125719Y-108159005D01*
X132307148Y-108159005D01*
X132416005Y-108122720D01*
X132488576Y-108050148D01*
X132524862Y-107977577D01*
X132561148Y-107832434D01*
X132561148Y-107723577D01*
X132524862Y-107578434D01*
X132488576Y-107505862D01*
X132416005Y-107433291D01*
X132307148Y-107397005D01*
X132125719Y-107397005D01*
X132851434Y-107614720D02*
X133214291Y-107614720D01*
X132778862Y-107397005D02*
X133032862Y-108159005D01*
X133286862Y-107397005D01*
X133432005Y-108159005D02*
X133867434Y-108159005D01*
X133649719Y-107397005D02*
X133649719Y-108159005D01*
X134085148Y-107614720D02*
X134448005Y-107614720D01*
X134012576Y-107397005D02*
X134266576Y-108159005D01*
X134520576Y-107397005D01*
X134774576Y-107687291D02*
X135355148Y-107687291D01*
X132488577Y-106949965D02*
X132125720Y-106949965D01*
X132089434Y-106587108D01*
X132125720Y-106623394D01*
X132198291Y-106659680D01*
X132379720Y-106659680D01*
X132452291Y-106623394D01*
X132488577Y-106587108D01*
X132524862Y-106514537D01*
X132524862Y-106333108D01*
X132488577Y-106260537D01*
X132452291Y-106224251D01*
X132379720Y-106187965D01*
X132198291Y-106187965D01*
X132125720Y-106224251D01*
X132089434Y-106260537D01*
X132742577Y-106949965D02*
X132996577Y-106187965D01*
X133250577Y-106949965D01*
X130778794Y-105039160D02*
X131395651Y-105039160D01*
X131468222Y-105075445D01*
X131504508Y-105111731D01*
X131540794Y-105184302D01*
X131540794Y-105329445D01*
X131504508Y-105402017D01*
X131468222Y-105438302D01*
X131395651Y-105474588D01*
X130778794Y-105474588D01*
X131504508Y-105801160D02*
X131540794Y-105910017D01*
X131540794Y-106091445D01*
X131504508Y-106164017D01*
X131468222Y-106200302D01*
X131395651Y-106236588D01*
X131323080Y-106236588D01*
X131250508Y-106200302D01*
X131214222Y-106164017D01*
X131177937Y-106091445D01*
X131141651Y-105946302D01*
X131105365Y-105873731D01*
X131069080Y-105837445D01*
X130996508Y-105801160D01*
X130923937Y-105801160D01*
X130851365Y-105837445D01*
X130815080Y-105873731D01*
X130778794Y-105946302D01*
X130778794Y-106127731D01*
X130815080Y-106236588D01*
X131141651Y-106817160D02*
X131177937Y-106926017D01*
X131214222Y-106962302D01*
X131286794Y-106998588D01*
X131395651Y-106998588D01*
X131468222Y-106962302D01*
X131504508Y-106926017D01*
X131540794Y-106853445D01*
X131540794Y-106563160D01*
X130778794Y-106563160D01*
X130778794Y-106817160D01*
X130815080Y-106889731D01*
X130851365Y-106926017D01*
X130923937Y-106962302D01*
X130996508Y-106962302D01*
X131069080Y-106926017D01*
X131105365Y-106889731D01*
X131141651Y-106817160D01*
X131141651Y-106563160D01*
X131540794Y-107905731D02*
X130778794Y-107905731D01*
X130778794Y-108196017D01*
X130815080Y-108268588D01*
X130851365Y-108304874D01*
X130923937Y-108341160D01*
X131032794Y-108341160D01*
X131105365Y-108304874D01*
X131141651Y-108268588D01*
X131177937Y-108196017D01*
X131177937Y-107905731D01*
X131540794Y-108667731D02*
X130778794Y-108667731D01*
X131540794Y-109030588D02*
X130778794Y-109030588D01*
X131540794Y-109466017D01*
X130778794Y-109466017D01*
X130778794Y-109974017D02*
X130778794Y-110119160D01*
X130815080Y-110191731D01*
X130887651Y-110264302D01*
X131032794Y-110300588D01*
X131286794Y-110300588D01*
X131431937Y-110264302D01*
X131504508Y-110191731D01*
X131540794Y-110119160D01*
X131540794Y-109974017D01*
X131504508Y-109901445D01*
X131431937Y-109828874D01*
X131286794Y-109792588D01*
X131032794Y-109792588D01*
X130887651Y-109828874D01*
X130815080Y-109901445D01*
X130778794Y-109974017D01*
X130778794Y-110627160D02*
X131395651Y-110627160D01*
X131468222Y-110663445D01*
X131504508Y-110699731D01*
X131540794Y-110772302D01*
X131540794Y-110917445D01*
X131504508Y-110990017D01*
X131468222Y-111026302D01*
X131395651Y-111062588D01*
X130778794Y-111062588D01*
X130778794Y-111316588D02*
X130778794Y-111752017D01*
X131540794Y-111534302D02*
X130778794Y-111534302D01*
X138419114Y-124999931D02*
X139035971Y-124999931D01*
X139108542Y-125036217D01*
X139144828Y-125072502D01*
X139181114Y-125145074D01*
X139181114Y-125290217D01*
X139144828Y-125362788D01*
X139108542Y-125399074D01*
X139035971Y-125435360D01*
X138419114Y-125435360D01*
X139144828Y-125761931D02*
X139181114Y-125870788D01*
X139181114Y-126052217D01*
X139144828Y-126124788D01*
X139108542Y-126161074D01*
X139035971Y-126197360D01*
X138963400Y-126197360D01*
X138890828Y-126161074D01*
X138854542Y-126124788D01*
X138818257Y-126052217D01*
X138781971Y-125907074D01*
X138745685Y-125834502D01*
X138709400Y-125798217D01*
X138636828Y-125761931D01*
X138564257Y-125761931D01*
X138491685Y-125798217D01*
X138455400Y-125834502D01*
X138419114Y-125907074D01*
X138419114Y-126088502D01*
X138455400Y-126197360D01*
X138781971Y-126777931D02*
X138818257Y-126886788D01*
X138854542Y-126923074D01*
X138927114Y-126959360D01*
X139035971Y-126959360D01*
X139108542Y-126923074D01*
X139144828Y-126886788D01*
X139181114Y-126814217D01*
X139181114Y-126523931D01*
X138419114Y-126523931D01*
X138419114Y-126777931D01*
X138455400Y-126850502D01*
X138491685Y-126886788D01*
X138564257Y-126923074D01*
X138636828Y-126923074D01*
X138709400Y-126886788D01*
X138745685Y-126850502D01*
X138781971Y-126777931D01*
X138781971Y-126523931D01*
X138673114Y-127612502D02*
X139181114Y-127612502D01*
X138382828Y-127431074D02*
X138927114Y-127249645D01*
X138927114Y-127721360D01*
X138419114Y-115642571D02*
X139035971Y-115642571D01*
X139108542Y-115678857D01*
X139144828Y-115715142D01*
X139181114Y-115787714D01*
X139181114Y-115932857D01*
X139144828Y-116005428D01*
X139108542Y-116041714D01*
X139035971Y-116078000D01*
X138419114Y-116078000D01*
X139144828Y-116404571D02*
X139181114Y-116513428D01*
X139181114Y-116694857D01*
X139144828Y-116767428D01*
X139108542Y-116803714D01*
X139035971Y-116840000D01*
X138963400Y-116840000D01*
X138890828Y-116803714D01*
X138854542Y-116767428D01*
X138818257Y-116694857D01*
X138781971Y-116549714D01*
X138745685Y-116477142D01*
X138709400Y-116440857D01*
X138636828Y-116404571D01*
X138564257Y-116404571D01*
X138491685Y-116440857D01*
X138455400Y-116477142D01*
X138419114Y-116549714D01*
X138419114Y-116731142D01*
X138455400Y-116840000D01*
X138781971Y-117420571D02*
X138818257Y-117529428D01*
X138854542Y-117565714D01*
X138927114Y-117602000D01*
X139035971Y-117602000D01*
X139108542Y-117565714D01*
X139144828Y-117529428D01*
X139181114Y-117456857D01*
X139181114Y-117166571D01*
X138419114Y-117166571D01*
X138419114Y-117420571D01*
X138455400Y-117493142D01*
X138491685Y-117529428D01*
X138564257Y-117565714D01*
X138636828Y-117565714D01*
X138709400Y-117529428D01*
X138745685Y-117493142D01*
X138781971Y-117420571D01*
X138781971Y-117166571D01*
X138419114Y-117856000D02*
X138419114Y-118327714D01*
X138709400Y-118073714D01*
X138709400Y-118182571D01*
X138745685Y-118255142D01*
X138781971Y-118291428D01*
X138854542Y-118327714D01*
X139035971Y-118327714D01*
X139108542Y-118291428D01*
X139144828Y-118255142D01*
X139181114Y-118182571D01*
X139181114Y-117964857D01*
X139144828Y-117892285D01*
X139108542Y-117856000D01*
X138419114Y-106381731D02*
X139035971Y-106381731D01*
X139108542Y-106418017D01*
X139144828Y-106454302D01*
X139181114Y-106526874D01*
X139181114Y-106672017D01*
X139144828Y-106744588D01*
X139108542Y-106780874D01*
X139035971Y-106817160D01*
X138419114Y-106817160D01*
X139144828Y-107143731D02*
X139181114Y-107252588D01*
X139181114Y-107434017D01*
X139144828Y-107506588D01*
X139108542Y-107542874D01*
X139035971Y-107579160D01*
X138963400Y-107579160D01*
X138890828Y-107542874D01*
X138854542Y-107506588D01*
X138818257Y-107434017D01*
X138781971Y-107288874D01*
X138745685Y-107216302D01*
X138709400Y-107180017D01*
X138636828Y-107143731D01*
X138564257Y-107143731D01*
X138491685Y-107180017D01*
X138455400Y-107216302D01*
X138419114Y-107288874D01*
X138419114Y-107470302D01*
X138455400Y-107579160D01*
X138781971Y-108159731D02*
X138818257Y-108268588D01*
X138854542Y-108304874D01*
X138927114Y-108341160D01*
X139035971Y-108341160D01*
X139108542Y-108304874D01*
X139144828Y-108268588D01*
X139181114Y-108196017D01*
X139181114Y-107905731D01*
X138419114Y-107905731D01*
X138419114Y-108159731D01*
X138455400Y-108232302D01*
X138491685Y-108268588D01*
X138564257Y-108304874D01*
X138636828Y-108304874D01*
X138709400Y-108268588D01*
X138745685Y-108232302D01*
X138781971Y-108159731D01*
X138781971Y-107905731D01*
X138491685Y-108631445D02*
X138455400Y-108667731D01*
X138419114Y-108740302D01*
X138419114Y-108921731D01*
X138455400Y-108994302D01*
X138491685Y-109030588D01*
X138564257Y-109066874D01*
X138636828Y-109066874D01*
X138745685Y-109030588D01*
X139181114Y-108595160D01*
X139181114Y-109066874D01*
X138419114Y-97532371D02*
X139035971Y-97532371D01*
X139108542Y-97568657D01*
X139144828Y-97604942D01*
X139181114Y-97677514D01*
X139181114Y-97822657D01*
X139144828Y-97895228D01*
X139108542Y-97931514D01*
X139035971Y-97967800D01*
X138419114Y-97967800D01*
X139144828Y-98294371D02*
X139181114Y-98403228D01*
X139181114Y-98584657D01*
X139144828Y-98657228D01*
X139108542Y-98693514D01*
X139035971Y-98729800D01*
X138963400Y-98729800D01*
X138890828Y-98693514D01*
X138854542Y-98657228D01*
X138818257Y-98584657D01*
X138781971Y-98439514D01*
X138745685Y-98366942D01*
X138709400Y-98330657D01*
X138636828Y-98294371D01*
X138564257Y-98294371D01*
X138491685Y-98330657D01*
X138455400Y-98366942D01*
X138419114Y-98439514D01*
X138419114Y-98620942D01*
X138455400Y-98729800D01*
X138781971Y-99310371D02*
X138818257Y-99419228D01*
X138854542Y-99455514D01*
X138927114Y-99491800D01*
X139035971Y-99491800D01*
X139108542Y-99455514D01*
X139144828Y-99419228D01*
X139181114Y-99346657D01*
X139181114Y-99056371D01*
X138419114Y-99056371D01*
X138419114Y-99310371D01*
X138455400Y-99382942D01*
X138491685Y-99419228D01*
X138564257Y-99455514D01*
X138636828Y-99455514D01*
X138709400Y-99419228D01*
X138745685Y-99382942D01*
X138781971Y-99310371D01*
X138781971Y-99056371D01*
X139181114Y-100217514D02*
X139181114Y-99782085D01*
X139181114Y-99999800D02*
X138419114Y-99999800D01*
X138527971Y-99927228D01*
X138600542Y-99854657D01*
X138636828Y-99782085D01*
X136836331Y-87024028D02*
X136836331Y-87278028D01*
X137235474Y-87386885D02*
X137235474Y-87024028D01*
X136473474Y-87024028D01*
X136473474Y-87386885D01*
X136473474Y-87604600D02*
X136473474Y-88040028D01*
X137235474Y-87822314D02*
X136473474Y-87822314D01*
X137235474Y-88294028D02*
X136473474Y-88294028D01*
X136836331Y-88294028D02*
X136836331Y-88729457D01*
X137235474Y-88729457D02*
X136473474Y-88729457D01*
X136836331Y-89092314D02*
X136836331Y-89346314D01*
X137235474Y-89455171D02*
X137235474Y-89092314D01*
X136473474Y-89092314D01*
X136473474Y-89455171D01*
X137235474Y-90217171D02*
X136872617Y-89963171D01*
X137235474Y-89781742D02*
X136473474Y-89781742D01*
X136473474Y-90072028D01*
X136509760Y-90144600D01*
X136546045Y-90180885D01*
X136618617Y-90217171D01*
X136727474Y-90217171D01*
X136800045Y-90180885D01*
X136836331Y-90144600D01*
X136872617Y-90072028D01*
X136872617Y-89781742D01*
X137235474Y-90543742D02*
X136473474Y-90543742D01*
X137235474Y-90979171D01*
X136473474Y-90979171D01*
X136836331Y-91342028D02*
X136836331Y-91596028D01*
X137235474Y-91704885D02*
X137235474Y-91342028D01*
X136473474Y-91342028D01*
X136473474Y-91704885D01*
X136473474Y-91922600D02*
X136473474Y-92358028D01*
X137235474Y-92140314D02*
X136473474Y-92140314D01*
X58733508Y-115630234D02*
X58733508Y-116210805D01*
X59023794Y-115920520D02*
X58443222Y-115920520D01*
X60513685Y-127286657D02*
X60513685Y-126851228D01*
X59751685Y-127068942D02*
X60513685Y-127068942D01*
X60150828Y-126597228D02*
X60150828Y-126343228D01*
X59751685Y-126234371D02*
X59751685Y-126597228D01*
X60513685Y-126597228D01*
X60513685Y-126234371D01*
X59751685Y-125544942D02*
X59751685Y-125907800D01*
X60513685Y-125907800D01*
X60150828Y-125290942D02*
X60150828Y-125036942D01*
X59751685Y-124928085D02*
X59751685Y-125290942D01*
X60513685Y-125290942D01*
X60513685Y-124928085D01*
X59751685Y-124601514D02*
X60513685Y-124601514D01*
X59969400Y-124347514D01*
X60513685Y-124093514D01*
X59751685Y-124093514D01*
X59751685Y-123331514D02*
X59751685Y-123766942D01*
X59751685Y-123549228D02*
X60513685Y-123549228D01*
X60404828Y-123621800D01*
X60332257Y-123694371D01*
X60295971Y-123766942D01*
X58601428Y-128416594D02*
X58601428Y-128997165D01*
X58891714Y-128706880D02*
X58311142Y-128706880D01*
X58609411Y-122733525D02*
X58609411Y-122152954D01*
X59824257Y-114807274D02*
X59787971Y-114843560D01*
X59751685Y-114952417D01*
X59751685Y-115024988D01*
X59787971Y-115133845D01*
X59860542Y-115206417D01*
X59933114Y-115242702D01*
X60078257Y-115278988D01*
X60187114Y-115278988D01*
X60332257Y-115242702D01*
X60404828Y-115206417D01*
X60477400Y-115133845D01*
X60513685Y-115024988D01*
X60513685Y-114952417D01*
X60477400Y-114843560D01*
X60441114Y-114807274D01*
X59969400Y-114516988D02*
X59969400Y-114154131D01*
X59751685Y-114589560D02*
X60513685Y-114335560D01*
X59751685Y-114081560D01*
X59751685Y-113827560D02*
X60513685Y-113827560D01*
X59751685Y-113392131D01*
X60513685Y-113392131D01*
X60441114Y-113065560D02*
X60477400Y-113029274D01*
X60513685Y-112956702D01*
X60513685Y-112775274D01*
X60477400Y-112702702D01*
X60441114Y-112666417D01*
X60368542Y-112630131D01*
X60295971Y-112630131D01*
X60187114Y-112666417D01*
X59751685Y-113101845D01*
X59751685Y-112630131D01*
X55096228Y-121934514D02*
X55096228Y-122515085D01*
X58708108Y-111896434D02*
X58708108Y-112477005D01*
X59824257Y-106381731D02*
X59787971Y-106418017D01*
X59751685Y-106526874D01*
X59751685Y-106599445D01*
X59787971Y-106708302D01*
X59860542Y-106780874D01*
X59933114Y-106817160D01*
X60078257Y-106853445D01*
X60187114Y-106853445D01*
X60332257Y-106817160D01*
X60404828Y-106780874D01*
X60477400Y-106708302D01*
X60513685Y-106599445D01*
X60513685Y-106526874D01*
X60477400Y-106418017D01*
X60441114Y-106381731D01*
X60513685Y-105910017D02*
X60513685Y-105764874D01*
X60477400Y-105692302D01*
X60404828Y-105619731D01*
X60259685Y-105583445D01*
X60005685Y-105583445D01*
X59860542Y-105619731D01*
X59787971Y-105692302D01*
X59751685Y-105764874D01*
X59751685Y-105910017D01*
X59787971Y-105982588D01*
X59860542Y-106055160D01*
X60005685Y-106091445D01*
X60259685Y-106091445D01*
X60404828Y-106055160D01*
X60477400Y-105982588D01*
X60513685Y-105910017D01*
X59751685Y-105256874D02*
X60513685Y-105256874D01*
X59751685Y-104821445D01*
X60513685Y-104821445D01*
X59787971Y-104494874D02*
X59751685Y-104386017D01*
X59751685Y-104204588D01*
X59787971Y-104132017D01*
X59824257Y-104095731D01*
X59896828Y-104059445D01*
X59969400Y-104059445D01*
X60041971Y-104095731D01*
X60078257Y-104132017D01*
X60114542Y-104204588D01*
X60150828Y-104349731D01*
X60187114Y-104422302D01*
X60223400Y-104458588D01*
X60295971Y-104494874D01*
X60368542Y-104494874D01*
X60441114Y-104458588D01*
X60477400Y-104422302D01*
X60513685Y-104349731D01*
X60513685Y-104168302D01*
X60477400Y-104059445D01*
X60513685Y-103587731D02*
X60513685Y-103442588D01*
X60477400Y-103370017D01*
X60404828Y-103297445D01*
X60259685Y-103261160D01*
X60005685Y-103261160D01*
X59860542Y-103297445D01*
X59787971Y-103370017D01*
X59751685Y-103442588D01*
X59751685Y-103587731D01*
X59787971Y-103660302D01*
X59860542Y-103732874D01*
X60005685Y-103769160D01*
X60259685Y-103769160D01*
X60404828Y-103732874D01*
X60477400Y-103660302D01*
X60513685Y-103587731D01*
X59751685Y-102571731D02*
X59751685Y-102934588D01*
X60513685Y-102934588D01*
X60150828Y-102317731D02*
X60150828Y-102063731D01*
X59751685Y-101954874D02*
X59751685Y-102317731D01*
X60513685Y-102317731D01*
X60513685Y-101954874D01*
X59231348Y-102854034D02*
X59231348Y-103434605D01*
X59497685Y-104628405D02*
X58917114Y-104410691D01*
X59497685Y-104192977D01*
X58947594Y-105449914D02*
X59528165Y-105667628D01*
X58947594Y-105885342D01*
X119234857Y-110949014D02*
X119234857Y-110187014D01*
X118944571Y-110187014D01*
X118872000Y-110223300D01*
X118835714Y-110259585D01*
X118799428Y-110332157D01*
X118799428Y-110441014D01*
X118835714Y-110513585D01*
X118872000Y-110549871D01*
X118944571Y-110586157D01*
X119234857Y-110586157D01*
X118472857Y-110949014D02*
X118472857Y-110187014D01*
X118182571Y-110187014D02*
X117674571Y-110949014D01*
X117674571Y-110187014D02*
X118182571Y-110949014D01*
X116948857Y-110876442D02*
X116985142Y-110912728D01*
X117094000Y-110949014D01*
X117166571Y-110949014D01*
X117275428Y-110912728D01*
X117348000Y-110840157D01*
X117384285Y-110767585D01*
X117420571Y-110622442D01*
X117420571Y-110513585D01*
X117384285Y-110368442D01*
X117348000Y-110295871D01*
X117275428Y-110223300D01*
X117166571Y-110187014D01*
X117094000Y-110187014D01*
X116985142Y-110223300D01*
X116948857Y-110259585D01*
X116295714Y-110441014D02*
X116295714Y-110949014D01*
X116477142Y-110150728D02*
X116658571Y-110695014D01*
X116186857Y-110695014D01*
X115896571Y-110658728D02*
X115316000Y-110658728D01*
X114735428Y-110187014D02*
X114735428Y-110731300D01*
X114771714Y-110840157D01*
X114844285Y-110912728D01*
X114953142Y-110949014D01*
X115025714Y-110949014D01*
X114372571Y-110549871D02*
X114118571Y-110549871D01*
X114009714Y-110949014D02*
X114372571Y-110949014D01*
X114372571Y-110187014D01*
X114009714Y-110187014D01*
X113792000Y-110187014D02*
X113356571Y-110187014D01*
X113574285Y-110949014D02*
X113574285Y-110187014D01*
X113138857Y-110912728D02*
X113030000Y-110949014D01*
X112848571Y-110949014D01*
X112776000Y-110912728D01*
X112739714Y-110876442D01*
X112703428Y-110803871D01*
X112703428Y-110731300D01*
X112739714Y-110658728D01*
X112776000Y-110622442D01*
X112848571Y-110586157D01*
X112993714Y-110549871D01*
X113066285Y-110513585D01*
X113102571Y-110477300D01*
X113138857Y-110404728D01*
X113138857Y-110332157D01*
X113102571Y-110259585D01*
X113066285Y-110223300D01*
X112993714Y-110187014D01*
X112812285Y-110187014D01*
X112703428Y-110223300D01*
X112231714Y-110187014D02*
X112086571Y-110187014D01*
X112014000Y-110223300D01*
X111941428Y-110295871D01*
X111905142Y-110441014D01*
X111905142Y-110695014D01*
X111941428Y-110840157D01*
X112014000Y-110912728D01*
X112086571Y-110949014D01*
X112231714Y-110949014D01*
X112304285Y-110912728D01*
X112376857Y-110840157D01*
X112413142Y-110695014D01*
X112413142Y-110441014D01*
X112376857Y-110295871D01*
X112304285Y-110223300D01*
X112231714Y-110187014D01*
X111578571Y-110949014D02*
X111578571Y-110187014D01*
X111143142Y-110949014D01*
X111143142Y-110187014D01*
X117983000Y-112146442D02*
X118019285Y-112182728D01*
X118128142Y-112219014D01*
X118200714Y-112219014D01*
X118309571Y-112182728D01*
X118382142Y-112110157D01*
X118418428Y-112037585D01*
X118454714Y-111892442D01*
X118454714Y-111783585D01*
X118418428Y-111638442D01*
X118382142Y-111565871D01*
X118309571Y-111493300D01*
X118200714Y-111457014D01*
X118128142Y-111457014D01*
X118019285Y-111493300D01*
X117983000Y-111529585D01*
X117692714Y-112001300D02*
X117329857Y-112001300D01*
X117765285Y-112219014D02*
X117511285Y-111457014D01*
X117257285Y-112219014D01*
X116567857Y-112219014D02*
X116821857Y-111856157D01*
X117003285Y-112219014D02*
X117003285Y-111457014D01*
X116713000Y-111457014D01*
X116640428Y-111493300D01*
X116604142Y-111529585D01*
X116567857Y-111602157D01*
X116567857Y-111711014D01*
X116604142Y-111783585D01*
X116640428Y-111819871D01*
X116713000Y-111856157D01*
X117003285Y-111856157D01*
X115805857Y-112219014D02*
X116059857Y-111856157D01*
X116241285Y-112219014D02*
X116241285Y-111457014D01*
X115951000Y-111457014D01*
X115878428Y-111493300D01*
X115842142Y-111529585D01*
X115805857Y-111602157D01*
X115805857Y-111711014D01*
X115842142Y-111783585D01*
X115878428Y-111819871D01*
X115951000Y-111856157D01*
X116241285Y-111856157D01*
X115479285Y-112219014D02*
X115479285Y-111457014D01*
X115116428Y-111819871D02*
X114862428Y-111819871D01*
X114753571Y-112219014D02*
X115116428Y-112219014D01*
X115116428Y-111457014D01*
X114753571Y-111457014D01*
X113991571Y-112219014D02*
X114245571Y-111856157D01*
X114427000Y-112219014D02*
X114427000Y-111457014D01*
X114136714Y-111457014D01*
X114064142Y-111493300D01*
X114027857Y-111529585D01*
X113991571Y-111602157D01*
X113991571Y-111711014D01*
X114027857Y-111783585D01*
X114064142Y-111819871D01*
X114136714Y-111856157D01*
X114427000Y-111856157D01*
X112649000Y-112219014D02*
X112903000Y-111856157D01*
X113084428Y-112219014D02*
X113084428Y-111457014D01*
X112794142Y-111457014D01*
X112721571Y-111493300D01*
X112685285Y-111529585D01*
X112649000Y-111602157D01*
X112649000Y-111711014D01*
X112685285Y-111783585D01*
X112721571Y-111819871D01*
X112794142Y-111856157D01*
X113084428Y-111856157D01*
X111923285Y-112219014D02*
X112358714Y-112219014D01*
X112141000Y-112219014D02*
X112141000Y-111457014D01*
X112213571Y-111565871D01*
X112286142Y-111638442D01*
X112358714Y-111674728D01*
X82417557Y-86993185D02*
X82417557Y-87755185D01*
X82671557Y-87210900D01*
X82925557Y-87755185D01*
X82925557Y-86993185D01*
X83288414Y-86993185D02*
X83288414Y-87755185D01*
X83651271Y-86993185D02*
X83651271Y-87755185D01*
X83941557Y-87755185D01*
X84014128Y-87718900D01*
X84050414Y-87682614D01*
X84086700Y-87610042D01*
X84086700Y-87501185D01*
X84050414Y-87428614D01*
X84014128Y-87392328D01*
X83941557Y-87356042D01*
X83651271Y-87356042D01*
X84413271Y-86993185D02*
X84413271Y-87755185D01*
X85792128Y-87065757D02*
X85755842Y-87029471D01*
X85646985Y-86993185D01*
X85574414Y-86993185D01*
X85465557Y-87029471D01*
X85392985Y-87102042D01*
X85356700Y-87174614D01*
X85320414Y-87319757D01*
X85320414Y-87428614D01*
X85356700Y-87573757D01*
X85392985Y-87646328D01*
X85465557Y-87718900D01*
X85574414Y-87755185D01*
X85646985Y-87755185D01*
X85755842Y-87718900D01*
X85792128Y-87682614D01*
X86082414Y-87210900D02*
X86445271Y-87210900D01*
X86009842Y-86993185D02*
X86263842Y-87755185D01*
X86517842Y-86993185D01*
X86771842Y-86993185D02*
X86771842Y-87755185D01*
X87025842Y-87210900D01*
X87279842Y-87755185D01*
X87279842Y-86993185D01*
X79467528Y-84679971D02*
X79467528Y-85260542D01*
X79757814Y-84970257D02*
X79177242Y-84970257D01*
X78995814Y-85550828D02*
X78995814Y-86022542D01*
X79286100Y-85768542D01*
X79286100Y-85877400D01*
X79322385Y-85949971D01*
X79358671Y-85986257D01*
X79431242Y-86022542D01*
X79612671Y-86022542D01*
X79685242Y-85986257D01*
X79721528Y-85949971D01*
X79757814Y-85877400D01*
X79757814Y-85659685D01*
X79721528Y-85587114D01*
X79685242Y-85550828D01*
X79685242Y-86349114D02*
X79721528Y-86385400D01*
X79757814Y-86349114D01*
X79721528Y-86312828D01*
X79685242Y-86349114D01*
X79757814Y-86349114D01*
X78995814Y-86639400D02*
X78995814Y-87111114D01*
X79286100Y-86857114D01*
X79286100Y-86965971D01*
X79322385Y-87038542D01*
X79358671Y-87074828D01*
X79431242Y-87111114D01*
X79612671Y-87111114D01*
X79685242Y-87074828D01*
X79721528Y-87038542D01*
X79757814Y-86965971D01*
X79757814Y-86748257D01*
X79721528Y-86675685D01*
X79685242Y-86639400D01*
X117413314Y-85649162D02*
X117413314Y-86084591D01*
X118175314Y-85866877D02*
X117413314Y-85866877D01*
X118175314Y-86266020D02*
X117667314Y-86665162D01*
X117667314Y-86266020D02*
X118175314Y-86665162D01*
X117885028Y-86955448D02*
X117885028Y-87536020D01*
X115914714Y-85649162D02*
X115914714Y-86084591D01*
X116676714Y-85866877D02*
X115914714Y-85866877D01*
X116676714Y-86266020D02*
X116168714Y-86665162D01*
X116168714Y-86266020D02*
X116676714Y-86665162D01*
X116386428Y-86955448D02*
X116386428Y-87536020D01*
X116676714Y-87245734D02*
X116096142Y-87245734D01*
X115096834Y-86193448D02*
X114733977Y-85939448D01*
X115096834Y-85758019D02*
X114334834Y-85758019D01*
X114334834Y-86048305D01*
X114371120Y-86120876D01*
X114407405Y-86157162D01*
X114479977Y-86193448D01*
X114588834Y-86193448D01*
X114661405Y-86157162D01*
X114697691Y-86120876D01*
X114733977Y-86048305D01*
X114733977Y-85758019D01*
X115096834Y-86447448D02*
X114588834Y-86846591D01*
X114588834Y-86447448D02*
X115096834Y-86846591D01*
X114806548Y-87136876D02*
X114806548Y-87717448D01*
X113491554Y-86193448D02*
X113128697Y-85939448D01*
X113491554Y-85758019D02*
X112729554Y-85758019D01*
X112729554Y-86048305D01*
X112765840Y-86120876D01*
X112802125Y-86157162D01*
X112874697Y-86193448D01*
X112983554Y-86193448D01*
X113056125Y-86157162D01*
X113092411Y-86120876D01*
X113128697Y-86048305D01*
X113128697Y-85758019D01*
X113491554Y-86447448D02*
X112983554Y-86846591D01*
X112983554Y-86447448D02*
X113491554Y-86846591D01*
X113201268Y-87136876D02*
X113201268Y-87717448D01*
X113491554Y-87427162D02*
X112910982Y-87427162D01*
X111474794Y-86422411D02*
X112055365Y-86422411D01*
X110153268Y-86097291D02*
X110153268Y-86677862D01*
X110443554Y-86387577D02*
X109862982Y-86387577D01*
X110044411Y-87294720D02*
X110080697Y-87403577D01*
X110116982Y-87439862D01*
X110189554Y-87476148D01*
X110298411Y-87476148D01*
X110370982Y-87439862D01*
X110407268Y-87403577D01*
X110443554Y-87331005D01*
X110443554Y-87040720D01*
X109681554Y-87040720D01*
X109681554Y-87294720D01*
X109717840Y-87367291D01*
X109754125Y-87403577D01*
X109826697Y-87439862D01*
X109899268Y-87439862D01*
X109971840Y-87403577D01*
X110008125Y-87367291D01*
X110044411Y-87294720D01*
X110044411Y-87040720D01*
X110225840Y-87766434D02*
X110225840Y-88129291D01*
X110443554Y-87693862D02*
X109681554Y-87947862D01*
X110443554Y-88201862D01*
X109681554Y-88347005D02*
X109681554Y-88782434D01*
X110443554Y-88564720D02*
X109681554Y-88564720D01*
X109681554Y-88927577D02*
X109681554Y-89363005D01*
X110443554Y-89145291D02*
X109681554Y-89145291D01*
X105776485Y-83627685D02*
X106139342Y-83881685D01*
X105776485Y-84063114D02*
X106538485Y-84063114D01*
X106538485Y-83772828D01*
X106502200Y-83700257D01*
X106465914Y-83663971D01*
X106393342Y-83627685D01*
X106284485Y-83627685D01*
X106211914Y-83663971D01*
X106175628Y-83700257D01*
X106139342Y-83772828D01*
X106139342Y-84063114D01*
X105994200Y-83337400D02*
X105994200Y-82974542D01*
X105776485Y-83409971D02*
X106538485Y-83155971D01*
X105776485Y-82901971D01*
X105776485Y-82647971D02*
X106538485Y-82647971D01*
X106538485Y-82466542D01*
X106502200Y-82357685D01*
X106429628Y-82285114D01*
X106357057Y-82248828D01*
X106211914Y-82212542D01*
X106103057Y-82212542D01*
X105957914Y-82248828D01*
X105885342Y-82285114D01*
X105812771Y-82357685D01*
X105776485Y-82466542D01*
X105776485Y-82647971D01*
X105776485Y-81885971D02*
X106538485Y-81885971D01*
X106538485Y-81377971D02*
X106538485Y-81232828D01*
X106502200Y-81160257D01*
X106429628Y-81087685D01*
X106284485Y-81051400D01*
X106030485Y-81051400D01*
X105885342Y-81087685D01*
X105812771Y-81160257D01*
X105776485Y-81232828D01*
X105776485Y-81377971D01*
X105812771Y-81450542D01*
X105885342Y-81523114D01*
X106030485Y-81559400D01*
X106284485Y-81559400D01*
X106429628Y-81523114D01*
X106502200Y-81450542D01*
X106538485Y-81377971D01*
D12*
%TO.C,J24*%
X146248240Y-123675320D02*
X146248240Y-128675320D01*
X143048240Y-121975320D02*
X141948240Y-121975320D01*
X141948240Y-121975320D02*
X141948240Y-123525320D01*
X141948240Y-123525320D02*
X142448240Y-123525320D01*
X142448240Y-123525320D02*
X142448240Y-122475320D01*
X142448240Y-122475320D02*
X143048240Y-122475320D01*
X143048240Y-122475320D02*
X143048240Y-121975320D01*
X143048240Y-130375320D02*
X141948240Y-130375320D01*
X141948240Y-130375320D02*
X141948240Y-128825320D01*
X141948240Y-128825320D02*
X142448240Y-128825320D01*
X142448240Y-128825320D02*
X142448240Y-129875320D01*
X142448240Y-129875320D02*
X143048240Y-129875320D01*
X143048240Y-129875320D02*
X143048240Y-130375320D01*
X141248240Y-123300320D02*
X140948240Y-122700320D01*
X140948240Y-122700320D02*
X141548240Y-122700320D01*
X141548240Y-122700320D02*
X141248240Y-123300320D01*
%TO.C,J23*%
X146248240Y-114540005D02*
X146248240Y-119540005D01*
X143048240Y-112840005D02*
X141948240Y-112840005D01*
X141948240Y-112840005D02*
X141948240Y-114390005D01*
X141948240Y-114390005D02*
X142448240Y-114390005D01*
X142448240Y-114390005D02*
X142448240Y-113340005D01*
X142448240Y-113340005D02*
X143048240Y-113340005D01*
X143048240Y-113340005D02*
X143048240Y-112840005D01*
X143048240Y-121240005D02*
X141948240Y-121240005D01*
X141948240Y-121240005D02*
X141948240Y-119690005D01*
X141948240Y-119690005D02*
X142448240Y-119690005D01*
X142448240Y-119690005D02*
X142448240Y-120740005D01*
X142448240Y-120740005D02*
X143048240Y-120740005D01*
X143048240Y-120740005D02*
X143048240Y-121240005D01*
X141248240Y-114165005D02*
X140948240Y-113565005D01*
X140948240Y-113565005D02*
X141548240Y-113565005D01*
X141548240Y-113565005D02*
X141248240Y-114165005D01*
%TO.C,J22*%
X146248240Y-105404690D02*
X146248240Y-110404690D01*
X143048240Y-103704690D02*
X141948240Y-103704690D01*
X141948240Y-103704690D02*
X141948240Y-105254690D01*
X141948240Y-105254690D02*
X142448240Y-105254690D01*
X142448240Y-105254690D02*
X142448240Y-104204690D01*
X142448240Y-104204690D02*
X143048240Y-104204690D01*
X143048240Y-104204690D02*
X143048240Y-103704690D01*
X143048240Y-112104690D02*
X141948240Y-112104690D01*
X141948240Y-112104690D02*
X141948240Y-110554690D01*
X141948240Y-110554690D02*
X142448240Y-110554690D01*
X142448240Y-110554690D02*
X142448240Y-111604690D01*
X142448240Y-111604690D02*
X143048240Y-111604690D01*
X143048240Y-111604690D02*
X143048240Y-112104690D01*
X141248240Y-105029690D02*
X140948240Y-104429690D01*
X140948240Y-104429690D02*
X141548240Y-104429690D01*
X141548240Y-104429690D02*
X141248240Y-105029690D01*
%TO.C,J21*%
X146248240Y-96269375D02*
X146248240Y-101269375D01*
X143048240Y-94569375D02*
X141948240Y-94569375D01*
X141948240Y-94569375D02*
X141948240Y-96119375D01*
X141948240Y-96119375D02*
X142448240Y-96119375D01*
X142448240Y-96119375D02*
X142448240Y-95069375D01*
X142448240Y-95069375D02*
X143048240Y-95069375D01*
X143048240Y-95069375D02*
X143048240Y-94569375D01*
X143048240Y-102969375D02*
X141948240Y-102969375D01*
X141948240Y-102969375D02*
X141948240Y-101419375D01*
X141948240Y-101419375D02*
X142448240Y-101419375D01*
X142448240Y-101419375D02*
X142448240Y-102469375D01*
X142448240Y-102469375D02*
X143048240Y-102469375D01*
X143048240Y-102469375D02*
X143048240Y-102969375D01*
X141248240Y-95894375D02*
X140948240Y-95294375D01*
X140948240Y-95294375D02*
X141548240Y-95294375D01*
X141548240Y-95294375D02*
X141248240Y-95894375D01*
%TO.C,J18*%
X52570260Y-129323660D02*
X52570260Y-121823660D01*
X55770260Y-131023660D02*
X56870260Y-131023660D01*
X56870260Y-131023660D02*
X56870260Y-129473660D01*
X56870260Y-129473660D02*
X56370260Y-129473660D01*
X56370260Y-129473660D02*
X56370260Y-130523660D01*
X56370260Y-130523660D02*
X55770260Y-130523660D01*
X55770260Y-130523660D02*
X55770260Y-131023660D01*
X55770260Y-120123660D02*
X56870260Y-120123660D01*
X56870260Y-120123660D02*
X56870260Y-121673660D01*
X56870260Y-121673660D02*
X56370260Y-121673660D01*
X56370260Y-121673660D02*
X56370260Y-120623660D01*
X56370260Y-120623660D02*
X55770260Y-120623660D01*
X55770260Y-120623660D02*
X55770260Y-120123660D01*
X57570260Y-129698660D02*
X57870260Y-130298660D01*
X57870260Y-130298660D02*
X57270260Y-130298660D01*
X57270260Y-130298660D02*
X57570260Y-129698660D01*
%TO.C,J17*%
X52570260Y-116562640D02*
X52570260Y-111562640D01*
X55770260Y-118262640D02*
X56870260Y-118262640D01*
X56870260Y-118262640D02*
X56870260Y-116712640D01*
X56870260Y-116712640D02*
X56370260Y-116712640D01*
X56370260Y-116712640D02*
X56370260Y-117762640D01*
X56370260Y-117762640D02*
X55770260Y-117762640D01*
X55770260Y-117762640D02*
X55770260Y-118262640D01*
X55770260Y-109862640D02*
X56870260Y-109862640D01*
X56870260Y-109862640D02*
X56870260Y-111412640D01*
X56870260Y-111412640D02*
X56370260Y-111412640D01*
X56370260Y-111412640D02*
X56370260Y-110362640D01*
X56370260Y-110362640D02*
X55770260Y-110362640D01*
X55770260Y-110362640D02*
X55770260Y-109862640D01*
X57570260Y-116937640D02*
X57870260Y-117537640D01*
X57870260Y-117537640D02*
X57270260Y-117537640D01*
X57270260Y-117537640D02*
X57570260Y-116937640D01*
%TO.C,J9*%
X146248240Y-87134060D02*
X146248240Y-92134060D01*
X143048240Y-85434060D02*
X141948240Y-85434060D01*
X141948240Y-85434060D02*
X141948240Y-86984060D01*
X141948240Y-86984060D02*
X142448240Y-86984060D01*
X142448240Y-86984060D02*
X142448240Y-85934060D01*
X142448240Y-85934060D02*
X143048240Y-85934060D01*
X143048240Y-85934060D02*
X143048240Y-85434060D01*
X143048240Y-93834060D02*
X141948240Y-93834060D01*
X141948240Y-93834060D02*
X141948240Y-92284060D01*
X141948240Y-92284060D02*
X142448240Y-92284060D01*
X142448240Y-92284060D02*
X142448240Y-93334060D01*
X142448240Y-93334060D02*
X143048240Y-93334060D01*
X143048240Y-93334060D02*
X143048240Y-93834060D01*
X141248240Y-86759060D02*
X140948240Y-86159060D01*
X140948240Y-86159060D02*
X141548240Y-86159060D01*
X141548240Y-86159060D02*
X141248240Y-86759060D01*
D10*
%TO.C,J8*%
X79011960Y-84104480D02*
X76695300Y-84104480D01*
X76695300Y-80071640D02*
X76695300Y-78541879D01*
X92849700Y-82083320D02*
X92849700Y-84104480D01*
X76695300Y-78541879D02*
X92849700Y-78541879D01*
X92849700Y-78541879D02*
X92849700Y-80071640D01*
X92849700Y-84104480D02*
X90533040Y-84104480D01*
X76695300Y-84104480D02*
X76695300Y-82083320D01*
X90360500Y-85260180D02*
G75*
G03*
X90360500Y-85260180I-381000J0D01*
G01*
D12*
%TO.C,J7*%
X52570260Y-106301620D02*
X52570260Y-102501620D01*
X55770260Y-108001620D02*
X56870260Y-108001620D01*
X56870260Y-108001620D02*
X56870260Y-106451620D01*
X56870260Y-106451620D02*
X56370260Y-106451620D01*
X56370260Y-106451620D02*
X56370260Y-107501620D01*
X56370260Y-107501620D02*
X55770260Y-107501620D01*
X55770260Y-107501620D02*
X55770260Y-108001620D01*
X55770260Y-100801620D02*
X56870260Y-100801620D01*
X56870260Y-100801620D02*
X56870260Y-102351620D01*
X56870260Y-102351620D02*
X56370260Y-102351620D01*
X56370260Y-102351620D02*
X56370260Y-101301620D01*
X56370260Y-101301620D02*
X55770260Y-101301620D01*
X55770260Y-101301620D02*
X55770260Y-100801620D01*
X57570260Y-106651620D02*
X57870260Y-107251620D01*
X57870260Y-107251620D02*
X57270260Y-107251620D01*
X57270260Y-107251620D02*
X57570260Y-106651620D01*
%TO.C,R17*%
X55766000Y-135500800D02*
X56006000Y-135500800D01*
X56006000Y-136380800D02*
X55766000Y-136380800D01*
%TO.C,R16*%
X54621700Y-136406200D02*
X54381700Y-136406200D01*
X54381700Y-135526200D02*
X54621700Y-135526200D01*
D13*
%TO.C,J14*%
X110301700Y-85718740D02*
G75*
G03*
X110301700Y-85718740I-125000J0D01*
G01*
D14*
X120426700Y-84753740D02*
X120426700Y-80728740D01*
X109501700Y-84753740D02*
X107426700Y-84753740D01*
X120426700Y-84753740D02*
X118351700Y-84753740D01*
X107426700Y-84753740D02*
X107426700Y-80728740D01*
%TO.C,J24*%
D11*
X140667014Y-129202542D02*
X141211300Y-129202542D01*
X141320157Y-129166257D01*
X141392728Y-129093685D01*
X141429014Y-128984828D01*
X141429014Y-128912257D01*
X140739585Y-129529114D02*
X140703300Y-129565400D01*
X140667014Y-129637971D01*
X140667014Y-129819400D01*
X140703300Y-129891971D01*
X140739585Y-129928257D01*
X140812157Y-129964542D01*
X140884728Y-129964542D01*
X140993585Y-129928257D01*
X141429014Y-129492828D01*
X141429014Y-129964542D01*
X140921014Y-130617685D02*
X141429014Y-130617685D01*
X140630728Y-130436257D02*
X141175014Y-130254828D01*
X141175014Y-130726542D01*
%TO.C,J23*%
X140667014Y-120007742D02*
X141211300Y-120007742D01*
X141320157Y-119971457D01*
X141392728Y-119898885D01*
X141429014Y-119790028D01*
X141429014Y-119717457D01*
X140739585Y-120334314D02*
X140703300Y-120370600D01*
X140667014Y-120443171D01*
X140667014Y-120624600D01*
X140703300Y-120697171D01*
X140739585Y-120733457D01*
X140812157Y-120769742D01*
X140884728Y-120769742D01*
X140993585Y-120733457D01*
X141429014Y-120298028D01*
X141429014Y-120769742D01*
X140667014Y-121023742D02*
X140667014Y-121495457D01*
X140957300Y-121241457D01*
X140957300Y-121350314D01*
X140993585Y-121422885D01*
X141029871Y-121459171D01*
X141102442Y-121495457D01*
X141283871Y-121495457D01*
X141356442Y-121459171D01*
X141392728Y-121422885D01*
X141429014Y-121350314D01*
X141429014Y-121132600D01*
X141392728Y-121060028D01*
X141356442Y-121023742D01*
%TO.C,J22*%
X140768614Y-111003442D02*
X141312900Y-111003442D01*
X141421757Y-110967157D01*
X141494328Y-110894585D01*
X141530614Y-110785728D01*
X141530614Y-110713157D01*
X140841185Y-111330014D02*
X140804900Y-111366300D01*
X140768614Y-111438871D01*
X140768614Y-111620300D01*
X140804900Y-111692871D01*
X140841185Y-111729157D01*
X140913757Y-111765442D01*
X140986328Y-111765442D01*
X141095185Y-111729157D01*
X141530614Y-111293728D01*
X141530614Y-111765442D01*
X140841185Y-112055728D02*
X140804900Y-112092014D01*
X140768614Y-112164585D01*
X140768614Y-112346014D01*
X140804900Y-112418585D01*
X140841185Y-112454871D01*
X140913757Y-112491157D01*
X140986328Y-112491157D01*
X141095185Y-112454871D01*
X141530614Y-112019442D01*
X141530614Y-112491157D01*
%TO.C,J21*%
X140768614Y-101884842D02*
X141312900Y-101884842D01*
X141421757Y-101848557D01*
X141494328Y-101775985D01*
X141530614Y-101667128D01*
X141530614Y-101594557D01*
X140841185Y-102211414D02*
X140804900Y-102247700D01*
X140768614Y-102320271D01*
X140768614Y-102501700D01*
X140804900Y-102574271D01*
X140841185Y-102610557D01*
X140913757Y-102646842D01*
X140986328Y-102646842D01*
X141095185Y-102610557D01*
X141530614Y-102175128D01*
X141530614Y-102646842D01*
X141530614Y-103372557D02*
X141530614Y-102937128D01*
X141530614Y-103154842D02*
X140768614Y-103154842D01*
X140877471Y-103082271D01*
X140950042Y-103009700D01*
X140986328Y-102937128D01*
%TO.C,J18*%
X58075285Y-121254157D02*
X57531000Y-121254157D01*
X57422142Y-121290442D01*
X57349571Y-121363014D01*
X57313285Y-121471871D01*
X57313285Y-121544442D01*
X57313285Y-120492157D02*
X57313285Y-120927585D01*
X57313285Y-120709871D02*
X58075285Y-120709871D01*
X57966428Y-120782442D01*
X57893857Y-120855014D01*
X57857571Y-120927585D01*
X57748714Y-120056728D02*
X57785000Y-120129300D01*
X57821285Y-120165585D01*
X57893857Y-120201871D01*
X57930142Y-120201871D01*
X58002714Y-120165585D01*
X58039000Y-120129300D01*
X58075285Y-120056728D01*
X58075285Y-119911585D01*
X58039000Y-119839014D01*
X58002714Y-119802728D01*
X57930142Y-119766442D01*
X57893857Y-119766442D01*
X57821285Y-119802728D01*
X57785000Y-119839014D01*
X57748714Y-119911585D01*
X57748714Y-120056728D01*
X57712428Y-120129300D01*
X57676142Y-120165585D01*
X57603571Y-120201871D01*
X57458428Y-120201871D01*
X57385857Y-120165585D01*
X57349571Y-120129300D01*
X57313285Y-120056728D01*
X57313285Y-119911585D01*
X57349571Y-119839014D01*
X57385857Y-119802728D01*
X57458428Y-119766442D01*
X57603571Y-119766442D01*
X57676142Y-119802728D01*
X57712428Y-119839014D01*
X57748714Y-119911585D01*
%TO.C,J17*%
X58176885Y-111106857D02*
X57632600Y-111106857D01*
X57523742Y-111143142D01*
X57451171Y-111215714D01*
X57414885Y-111324571D01*
X57414885Y-111397142D01*
X57414885Y-110344857D02*
X57414885Y-110780285D01*
X57414885Y-110562571D02*
X58176885Y-110562571D01*
X58068028Y-110635142D01*
X57995457Y-110707714D01*
X57959171Y-110780285D01*
X58176885Y-110090857D02*
X58176885Y-109582857D01*
X57414885Y-109909428D01*
%TO.C,J9*%
X140844814Y-92913200D02*
X141389100Y-92913200D01*
X141497957Y-92876914D01*
X141570528Y-92804342D01*
X141606814Y-92695485D01*
X141606814Y-92622914D01*
X141606814Y-93312342D02*
X141606814Y-93457485D01*
X141570528Y-93530057D01*
X141534242Y-93566342D01*
X141425385Y-93638914D01*
X141280242Y-93675200D01*
X140989957Y-93675200D01*
X140917385Y-93638914D01*
X140881100Y-93602628D01*
X140844814Y-93530057D01*
X140844814Y-93384914D01*
X140881100Y-93312342D01*
X140917385Y-93276057D01*
X140989957Y-93239771D01*
X141171385Y-93239771D01*
X141243957Y-93276057D01*
X141280242Y-93312342D01*
X141316528Y-93384914D01*
X141316528Y-93530057D01*
X141280242Y-93602628D01*
X141243957Y-93638914D01*
X141171385Y-93675200D01*
%TO.C,J8*%
X94208600Y-81481385D02*
X94208600Y-80937100D01*
X94172314Y-80828242D01*
X94099742Y-80755671D01*
X93990885Y-80719385D01*
X93918314Y-80719385D01*
X94680314Y-81154814D02*
X94607742Y-81191100D01*
X94571457Y-81227385D01*
X94535171Y-81299957D01*
X94535171Y-81336242D01*
X94571457Y-81408814D01*
X94607742Y-81445100D01*
X94680314Y-81481385D01*
X94825457Y-81481385D01*
X94898028Y-81445100D01*
X94934314Y-81408814D01*
X94970600Y-81336242D01*
X94970600Y-81299957D01*
X94934314Y-81227385D01*
X94898028Y-81191100D01*
X94825457Y-81154814D01*
X94680314Y-81154814D01*
X94607742Y-81118528D01*
X94571457Y-81082242D01*
X94535171Y-81009671D01*
X94535171Y-80864528D01*
X94571457Y-80791957D01*
X94607742Y-80755671D01*
X94680314Y-80719385D01*
X94825457Y-80719385D01*
X94898028Y-80755671D01*
X94934314Y-80791957D01*
X94970600Y-80864528D01*
X94970600Y-81009671D01*
X94934314Y-81082242D01*
X94898028Y-81118528D01*
X94825457Y-81154814D01*
%TO.C,J7*%
X58202285Y-101638100D02*
X57658000Y-101638100D01*
X57549142Y-101674385D01*
X57476571Y-101746957D01*
X57440285Y-101855814D01*
X57440285Y-101928385D01*
X58202285Y-101347814D02*
X58202285Y-100839814D01*
X57440285Y-101166385D01*
%TO.C,J14*%
X122261992Y-81684585D02*
X122261992Y-81140300D01*
X122225707Y-81031442D01*
X122153135Y-80958871D01*
X122044278Y-80922585D01*
X121971707Y-80922585D01*
X123023992Y-80922585D02*
X122588564Y-80922585D01*
X122806278Y-80922585D02*
X122806278Y-81684585D01*
X122733707Y-81575728D01*
X122661135Y-81503157D01*
X122588564Y-81466871D01*
X123677135Y-81430585D02*
X123677135Y-80922585D01*
X123495707Y-81720871D02*
X123314278Y-81176585D01*
X123785992Y-81176585D01*
%TD*%
M02*
