M48
; DRILL file {KiCad (5.1.8)-1} date 06/12/21 11:04:11
; FORMAT={3:3/ absolute / metric / suppress leading zeros}
; #@! TF.CreationDate,2021-06-12T11:04:11-04:00
; #@! TF.GenerationSoftware,Kicad,Pcbnew,(5.1.8)-1
; #@! TF.FileFunction,Plated,1,8,PTH
FMAT,2
METRIC,TZ
T1C0.300
T2C0.500
T3C1.000
T4C1.200
T5C1.900
T6C2.100
T7C2.700
%
G90
G05
T1
X53073Y-132601
X53924Y-135484
X55004Y-80924
X55385Y-123711
X55423Y-124955
X55486Y-126213
X55512Y-127432
X55512Y-128702
X56553Y-135446
X57125Y-132182
X58242Y-102382
X58270Y-101211
X58301Y-110600
X58373Y-123714
X58391Y-126053
X58491Y-109408
X58509Y-105626
X58519Y-120523
X58547Y-104432
X58577Y-114615
X58643Y-127110
X58644Y-113477
X58740Y-117495
X58860Y-119852
X58877Y-118796
X59324Y-122174
X59497Y-115936
X60127Y-128671
X61166Y-124930
X61270Y-102707
X63068Y-98908
X63068Y-105372
X63911Y-116591
X64148Y-84798
X64211Y-123101
X64834Y-108394
X65672Y-130645
X68453Y-104521
X68478Y-84252
X68491Y-88646
X69291Y-96926
X71260Y-135344
X71552Y-131880
X71933Y-85877
X72303Y-131690
X72753Y-103794
X73597Y-96965
X74778Y-86728
X74917Y-103886
X74968Y-102108
X75159Y-123228
X75184Y-124092
X75336Y-131115
X75463Y-103035
X75692Y-85522
X76010Y-102108
X76073Y-123215
X76086Y-103861
X76098Y-124079
X76987Y-123203
X77013Y-124066
X77051Y-85255
X77978Y-105537
X78156Y-85306
X79324Y-122707
X79426Y-82245
X80086Y-85496
X80658Y-82271
X80759Y-87058
X80848Y-127216
X81051Y-85662
X82448Y-85966
X83096Y-85344
X83325Y-117183
X84011Y-85446
X84442Y-81877
X84468Y-96406
X85052Y-130721
X85151Y-86707
X85331Y-101638
X85420Y-86004
X85903Y-85287
X86373Y-103911
X86500Y-122834
X86576Y-84950
X87516Y-85569
X87897Y-108293
X88075Y-85065
X89002Y-85141
X89040Y-127216
X89091Y-102730
X89103Y-129692
X89878Y-85179
X91237Y-117919
X93637Y-102044
X95136Y-96304
X95822Y-102172
X95872Y-100393
X96368Y-101321
X96914Y-100393
X96990Y-102146
X97574Y-89459
X97612Y-88316
X97638Y-134968
X97727Y-115113
X97775Y-81656
X98209Y-128422
X98273Y-127521
X98494Y-81433
X98557Y-115098
X98717Y-103937
X98765Y-124135
X98796Y-129178
X99161Y-81084
X99290Y-87736
X99468Y-123867
X99544Y-129257
X99768Y-81529
X99777Y-130030
X99835Y-122720
X99962Y-91211
X100039Y-87667
X100110Y-80729
X100355Y-121730
X100471Y-127500
X100519Y-129910
X100716Y-131013
X100851Y-80861
X100882Y-120607
X101388Y-130674
X101750Y-127337
X101763Y-81001
X102040Y-130297
X102171Y-122474
X102336Y-81514
X102359Y-123203
X102526Y-130871
X102730Y-87909
X102808Y-134548
X102991Y-123612
X103191Y-87314
X103271Y-130979
X103548Y-134683
X103746Y-124130
X104140Y-134214
X104216Y-86957
X104216Y-93891
X104229Y-81217
X104250Y-127337
X104632Y-124204
X104732Y-86399
X104735Y-133685
X105152Y-123621
X105499Y-86195
X105501Y-131212
X105753Y-116827
X105869Y-94031
X105882Y-123241
X105934Y-85573
X106299Y-135082
X106312Y-107150
X106408Y-124036
X106667Y-85832
X106717Y-94201
X106858Y-134298
X107088Y-92350
X107178Y-122682
X107417Y-85623
X107605Y-135118
X107610Y-134290
X107859Y-87056
X107874Y-123510
X107899Y-91643
X108141Y-109563
X108280Y-95783
X108394Y-87605
X108829Y-86086
X108846Y-81465
X108877Y-91491
X109042Y-104610
X109047Y-134777
X109182Y-80556
X109347Y-85491
X109354Y-134008
X109409Y-90959
X109499Y-124130
X109590Y-92064
X109995Y-116167
X110073Y-135098
X110326Y-91908
X110630Y-81407
X110724Y-134099
X110944Y-91478
X110965Y-86451
X111176Y-124358
X111381Y-134467
X111392Y-85801
X111773Y-106515
X111773Y-90930
X111989Y-124409
X112128Y-134559
X112149Y-135357
X112217Y-81483
X112217Y-91605
X112732Y-104299
X112933Y-135321
X113248Y-86722
X113566Y-94569
X113670Y-104274
X113671Y-135466
X113740Y-85543
X113897Y-87335
X114385Y-135702
X114554Y-120198
X114836Y-94569
X114854Y-87769
X115087Y-130619
X115202Y-91529
X115627Y-130095
X115888Y-116472
X116286Y-85889
X116398Y-128189
X117500Y-79845
X117937Y-85500
X119266Y-108242
X120599Y-115532
X121159Y-94597
X121209Y-103480
X122022Y-86106
X122034Y-80683
X122456Y-94569
X122456Y-103015
X122695Y-123533
X125082Y-89472
X125489Y-101498
X125921Y-80099
X126505Y-105626
X127000Y-91707
X127013Y-127470
X127430Y-88671
X127465Y-95016
X127465Y-96286
X127465Y-87396
X127838Y-135090
X127965Y-119405
X128727Y-100546
X129489Y-123596
X129616Y-107340
X131394Y-102895
X133096Y-123609
X133604Y-112713
X133871Y-100165
X135077Y-119532
X136857Y-95462
X137105Y-99940
X137272Y-125252
X137302Y-108453
X137493Y-96098
X137617Y-100701
X137627Y-107742
X137655Y-87617
X137662Y-99253
X137681Y-88481
X137748Y-90545
X137754Y-118151
X137825Y-127452
X137828Y-98078
X137998Y-128588
X138275Y-102646
X138316Y-115214
X138363Y-96968
X138447Y-105262
X138506Y-95931
X138745Y-114518
X138775Y-113284
X138816Y-123551
X138821Y-124419
X139471Y-125948
X139471Y-126833
X139598Y-124257
X139823Y-86847
X139856Y-116601
X139856Y-117409
X140183Y-115126
X140222Y-129980
X141402Y-93675
X141798Y-96894
X141798Y-106030
X143358Y-81674
X143485Y-92240
X143523Y-134455
X144043Y-97015
X144132Y-96139
X144180Y-99642
X144201Y-105261
X144209Y-100393
X144209Y-101194
X144247Y-103352
X144297Y-106007
X144323Y-92282
X144374Y-87668
X144374Y-90627
X145694Y-89662
T2
X59475Y-81750
X60068Y-80318
X60068Y-83182
X61500Y-79725
X61500Y-83775
X62932Y-80318
X62932Y-83182
X63525Y-81750
X135475Y-81750
X136068Y-80318
X136068Y-83182
X137500Y-79725
X137500Y-83775
X138932Y-80318
X138932Y-83182
X139525Y-81750
X135475Y-133750
X136068Y-132318
X136068Y-135182
X137500Y-131725
X137500Y-135775
X138932Y-132318
X138932Y-135182
X139525Y-133750
X59475Y-133750
X60068Y-132318
X60068Y-135182
X61500Y-131725
X61500Y-135775
X62932Y-132318
X62932Y-135182
X63525Y-133750
T3
X55194Y-85920
X55194Y-96920
T4
X95750Y-126875
X95750Y-131625
X120250Y-126875
X120250Y-131625
X95750Y-83875
X95750Y-88625
X120250Y-83875
X120250Y-88625
T5
X65194Y-88920
X65194Y-93920
T6
X67105Y-80734
X67105Y-134734
X132105Y-80734
X132105Y-134734
T7
X61500Y-81750
X137500Y-81750
X137500Y-133750
X61500Y-133750
T0
M30
