%TF.GenerationSoftware,KiCad,Pcbnew,(5.1.8)-1*%
%TF.CreationDate,2021-06-12T11:00:54-04:00*%
%TF.ProjectId,pixc4-jetson-universal-carrier,70697863-342d-46a6-9574-736f6e2d756e,rev?*%
%TF.SameCoordinates,Original*%
%TF.FileFunction,Paste,Bot*%
%TF.FilePolarity,Positive*%
%FSLAX46Y46*%
G04 Gerber Fmt 4.6, Leading zero omitted, Abs format (unit mm)*
G04 Created by KiCad (PCBNEW (5.1.8)-1) date 2021-06-12 11:00:54*
%MOMM*%
%LPD*%
G01*
G04 APERTURE LIST*
%ADD10R,1.800000X0.600000*%
%ADD11R,2.800000X1.000000*%
%ADD12R,2.006600X1.346200*%
%ADD13R,0.355600X1.041400*%
%ADD14R,0.280000X0.430000*%
%ADD15R,1.250000X1.800000*%
%ADD16R,0.600000X1.000000*%
G04 APERTURE END LIST*
D10*
%TO.C,J24*%
X141798240Y-124300320D03*
X141798240Y-125550320D03*
X141798240Y-126800320D03*
X141798240Y-128050320D03*
D11*
X144998240Y-129775320D03*
X144998240Y-122575320D03*
%TD*%
D10*
%TO.C,J23*%
X141798240Y-115165005D03*
X141798240Y-116415005D03*
X141798240Y-117665005D03*
X141798240Y-118915005D03*
D11*
X144998240Y-120640005D03*
X144998240Y-113440005D03*
%TD*%
D10*
%TO.C,J22*%
X141798240Y-106029690D03*
X141798240Y-107279690D03*
X141798240Y-108529690D03*
X141798240Y-109779690D03*
D11*
X144998240Y-111504690D03*
X144998240Y-104304690D03*
%TD*%
D10*
%TO.C,J21*%
X141798240Y-96894375D03*
X141798240Y-98144375D03*
X141798240Y-99394375D03*
X141798240Y-100644375D03*
D11*
X144998240Y-102369375D03*
X144998240Y-95169375D03*
%TD*%
D10*
%TO.C,J18*%
X57020260Y-128698660D03*
X57020260Y-127448660D03*
X57020260Y-126198660D03*
X57020260Y-124948660D03*
X57020260Y-123698660D03*
X57020260Y-122448660D03*
D11*
X53820260Y-120723660D03*
X53820260Y-130423660D03*
%TD*%
D10*
%TO.C,J17*%
X57020260Y-115937640D03*
X57020260Y-114687640D03*
X57020260Y-113437640D03*
X57020260Y-112187640D03*
D11*
X53820260Y-110462640D03*
X53820260Y-117662640D03*
%TD*%
D10*
%TO.C,J9*%
X141798240Y-87759060D03*
X141798240Y-89009060D03*
X141798240Y-90259060D03*
X141798240Y-91509060D03*
D11*
X144998240Y-93234060D03*
X144998240Y-86034060D03*
%TD*%
D12*
%TO.C,J8*%
X92322500Y-81077480D03*
X77222500Y-81077480D03*
D13*
X90022500Y-83777480D03*
X89522501Y-83777480D03*
X89022499Y-83777480D03*
X88522500Y-83777480D03*
X88022501Y-83777480D03*
X87522500Y-83777480D03*
X87022501Y-83777480D03*
X86522499Y-83777480D03*
X86022500Y-83777480D03*
X85522501Y-83777480D03*
X85022500Y-83777480D03*
X84522500Y-83777480D03*
X84022499Y-83777480D03*
X83522500Y-83777480D03*
X83022501Y-83777480D03*
X82522499Y-83777480D03*
X82022500Y-83777480D03*
X81522499Y-83777480D03*
X81022500Y-83777480D03*
X80522501Y-83777480D03*
X80022499Y-83777480D03*
X79522500Y-83777480D03*
%TD*%
D10*
%TO.C,J7*%
X57020260Y-105651620D03*
X57020260Y-104401620D03*
X57020260Y-103151620D03*
D11*
X53820260Y-101401620D03*
X53820260Y-107401620D03*
%TD*%
D14*
%TO.C,R17*%
X56146000Y-135940800D03*
X55626000Y-135940800D03*
%TD*%
%TO.C,R16*%
X54241700Y-135966200D03*
X54761700Y-135966200D03*
%TD*%
D15*
%TO.C,J14*%
X107571700Y-79453740D03*
X120281700Y-79453740D03*
D16*
X110176700Y-84643740D03*
X111676700Y-84643740D03*
X113176700Y-84643740D03*
X114676700Y-84643740D03*
X116176700Y-84643740D03*
X117676700Y-84643740D03*
%TD*%
M02*
